<mxfile host="app.diagrams.net" agent="Mozilla/5.0 (Windows NT 10.0; Win64; x64) AppleWebKit/537.36 (KHTML, like Gecko) Chrome/135.0.0.0 Safari/537.36" version="26.2.12">
  <diagram name="第 1 页" id="44ZVrLmqxPfrwCW0gd7F">
    <mxGraphModel dx="2888" dy="1892" grid="1" gridSize="10" guides="1" tooltips="1" connect="0" arrows="1" fold="1" page="0" pageScale="1" pageWidth="827" pageHeight="1169" math="0" shadow="0">
      <root>
        <mxCell id="0" />
        <mxCell id="1" parent="0" />
        <mxCell id="bneAhRaWCLOoodS1XEZf-1" value="" style="rounded=0;whiteSpace=wrap;html=1;" vertex="1" parent="1">
          <mxGeometry x="300" y="-240" width="470" height="230" as="geometry" />
        </mxCell>
        <mxCell id="c8mV4seKHAKRTPtKpaVG-1" value="" style="rounded=1;whiteSpace=wrap;html=1;fontSize=14;fillColor=none;" parent="1" vertex="1">
          <mxGeometry x="-556" y="70" width="336" height="190" as="geometry" />
        </mxCell>
        <mxCell id="E0c5lzYY-KsFI5MVlqS7-1" value="" style="rounded=0;whiteSpace=wrap;html=1;" parent="1" vertex="1">
          <mxGeometry x="-540" y="-403" width="647" height="372" as="geometry" />
        </mxCell>
        <mxCell id="3Vd9QLCNDWLQVO_T61nP-1" value="&lt;font style=&quot;font-size: 18px;&quot;&gt;硬件&lt;/font&gt;&lt;div&gt;&lt;font style=&quot;font-size: 18px;&quot;&gt;（CPU/内存/硬盘/网络）&lt;/font&gt;&lt;/div&gt;" style="rounded=0;whiteSpace=wrap;html=1;fillColor=#eeeeee;strokeColor=#939393;" parent="1" vertex="1">
          <mxGeometry x="-520" y="-117" width="310" height="60" as="geometry" />
        </mxCell>
        <mxCell id="3Vd9QLCNDWLQVO_T61nP-2" value="&lt;font style=&quot;font-size: 18px;&quot;&gt;硬件&lt;/font&gt;&lt;div&gt;&lt;font style=&quot;font-size: 18px;&quot;&gt;（CPU/内存/硬盘/网络）&lt;/font&gt;&lt;/div&gt;" style="rounded=0;whiteSpace=wrap;html=1;fillColor=#eeeeee;strokeColor=#939393;" parent="1" vertex="1">
          <mxGeometry x="-180" y="-117" width="270" height="60" as="geometry" />
        </mxCell>
        <mxCell id="3Vd9QLCNDWLQVO_T61nP-3" value="&lt;font style=&quot;font-size: 19px;&quot;&gt;Hypervisor&lt;/font&gt;" style="rounded=0;whiteSpace=wrap;html=1;fillColor=#fad9d5;strokeColor=#ae4132;" parent="1" vertex="1">
          <mxGeometry x="-520" y="-200" width="310" height="33" as="geometry" />
        </mxCell>
        <mxCell id="3Vd9QLCNDWLQVO_T61nP-4" value="&lt;font style=&quot;font-size: 19px;&quot;&gt;HostOS&lt;/font&gt;" style="rounded=0;whiteSpace=wrap;html=1;fillColor=#ffe6cc;strokeColor=#d79b00;" parent="1" vertex="1">
          <mxGeometry x="-180" y="-167" width="270" height="43" as="geometry" />
        </mxCell>
        <mxCell id="3Vd9QLCNDWLQVO_T61nP-5" value="&lt;font style=&quot;font-size: 18px;&quot;&gt;容器引擎&lt;/font&gt;" style="rounded=0;whiteSpace=wrap;html=1;fillColor=#e1d5e7;strokeColor=#9673a6;" parent="1" vertex="1">
          <mxGeometry x="-181" y="-240" width="271" height="63" as="geometry" />
        </mxCell>
        <mxCell id="3Vd9QLCNDWLQVO_T61nP-6" value="" style="rounded=0;whiteSpace=wrap;html=1;fillColor=#dae8fc;strokeColor=#6c8ebf;" parent="1" vertex="1">
          <mxGeometry x="-520" y="-380" width="150" height="170" as="geometry" />
        </mxCell>
        <mxCell id="3Vd9QLCNDWLQVO_T61nP-7" value="&lt;font style=&quot;font-size: 17px;&quot;&gt;VM1&lt;/font&gt;" style="text;html=1;align=center;verticalAlign=middle;whiteSpace=wrap;rounded=0;fontStyle=1" parent="1" vertex="1">
          <mxGeometry x="-475" y="-373" width="60" height="30" as="geometry" />
        </mxCell>
        <mxCell id="3Vd9QLCNDWLQVO_T61nP-9" value="&lt;span style=&quot;font-size: 17px;&quot;&gt;App1&lt;/span&gt;" style="rounded=0;whiteSpace=wrap;html=1;" parent="1" vertex="1">
          <mxGeometry x="-510" y="-340" width="60" height="40" as="geometry" />
        </mxCell>
        <mxCell id="3Vd9QLCNDWLQVO_T61nP-11" value="&lt;span style=&quot;font-size: 17px;&quot;&gt;App2&lt;/span&gt;" style="rounded=0;whiteSpace=wrap;html=1;" parent="1" vertex="1">
          <mxGeometry x="-440" y="-340" width="60" height="40" as="geometry" />
        </mxCell>
        <mxCell id="3Vd9QLCNDWLQVO_T61nP-12" value="&lt;span style=&quot;font-size: 17px;&quot;&gt;Bins/Libs&lt;/span&gt;" style="rounded=0;whiteSpace=wrap;html=1;" parent="1" vertex="1">
          <mxGeometry x="-510" y="-290" width="130" height="30" as="geometry" />
        </mxCell>
        <mxCell id="3Vd9QLCNDWLQVO_T61nP-13" value="&lt;span style=&quot;font-size: 17px;&quot;&gt;Guest OS&lt;/span&gt;" style="rounded=0;whiteSpace=wrap;html=1;" parent="1" vertex="1">
          <mxGeometry x="-510" y="-250" width="130" height="30" as="geometry" />
        </mxCell>
        <mxCell id="3Vd9QLCNDWLQVO_T61nP-14" value="" style="rounded=0;whiteSpace=wrap;html=1;fillColor=#dae8fc;strokeColor=#6c8ebf;" parent="1" vertex="1">
          <mxGeometry x="-360" y="-380" width="150" height="170" as="geometry" />
        </mxCell>
        <mxCell id="3Vd9QLCNDWLQVO_T61nP-15" value="&lt;font style=&quot;font-size: 17px;&quot;&gt;VM2&lt;/font&gt;" style="text;html=1;align=center;verticalAlign=middle;whiteSpace=wrap;rounded=0;fontStyle=1" parent="1" vertex="1">
          <mxGeometry x="-316" y="-373" width="60" height="30" as="geometry" />
        </mxCell>
        <mxCell id="3Vd9QLCNDWLQVO_T61nP-16" value="&lt;span style=&quot;font-size: 17px;&quot;&gt;App1&lt;/span&gt;" style="rounded=0;whiteSpace=wrap;html=1;" parent="1" vertex="1">
          <mxGeometry x="-350" y="-340" width="60" height="40" as="geometry" />
        </mxCell>
        <mxCell id="3Vd9QLCNDWLQVO_T61nP-17" value="&lt;span style=&quot;font-size: 17px;&quot;&gt;App2&lt;/span&gt;" style="rounded=0;whiteSpace=wrap;html=1;" parent="1" vertex="1">
          <mxGeometry x="-280" y="-340" width="60" height="40" as="geometry" />
        </mxCell>
        <mxCell id="3Vd9QLCNDWLQVO_T61nP-18" value="&lt;span style=&quot;font-size: 17px;&quot;&gt;Bins/Libs&lt;/span&gt;" style="rounded=0;whiteSpace=wrap;html=1;" parent="1" vertex="1">
          <mxGeometry x="-350" y="-290" width="130" height="30" as="geometry" />
        </mxCell>
        <mxCell id="3Vd9QLCNDWLQVO_T61nP-19" value="&lt;span style=&quot;font-size: 17px;&quot;&gt;Guest OS&lt;/span&gt;" style="rounded=0;whiteSpace=wrap;html=1;" parent="1" vertex="1">
          <mxGeometry x="-350" y="-250" width="130" height="30" as="geometry" />
        </mxCell>
        <mxCell id="3Vd9QLCNDWLQVO_T61nP-21" value="" style="rounded=0;whiteSpace=wrap;html=1;fillColor=#dae8fc;strokeColor=#6c8ebf;" parent="1" vertex="1">
          <mxGeometry x="-181" y="-380" width="130" height="130" as="geometry" />
        </mxCell>
        <mxCell id="3Vd9QLCNDWLQVO_T61nP-22" value="&lt;font style=&quot;font-size: 17px;&quot;&gt;Container1&lt;/font&gt;" style="text;html=1;align=center;verticalAlign=middle;whiteSpace=wrap;rounded=0;fontStyle=1" parent="1" vertex="1">
          <mxGeometry x="-146" y="-373" width="60" height="30" as="geometry" />
        </mxCell>
        <mxCell id="3Vd9QLCNDWLQVO_T61nP-23" value="&lt;span style=&quot;font-size: 17px;&quot;&gt;App1&lt;/span&gt;" style="rounded=0;whiteSpace=wrap;html=1;" parent="1" vertex="1">
          <mxGeometry x="-171" y="-340" width="110" height="40" as="geometry" />
        </mxCell>
        <mxCell id="3Vd9QLCNDWLQVO_T61nP-25" value="&lt;span style=&quot;font-size: 17px;&quot;&gt;Bins/Libs&lt;/span&gt;" style="rounded=0;whiteSpace=wrap;html=1;" parent="1" vertex="1">
          <mxGeometry x="-171" y="-290" width="110" height="30" as="geometry" />
        </mxCell>
        <mxCell id="3Vd9QLCNDWLQVO_T61nP-32" value="" style="rounded=0;whiteSpace=wrap;html=1;fillColor=#dae8fc;strokeColor=#6c8ebf;" parent="1" vertex="1">
          <mxGeometry x="-41" y="-380" width="130" height="130" as="geometry" />
        </mxCell>
        <mxCell id="3Vd9QLCNDWLQVO_T61nP-33" value="&lt;font style=&quot;font-size: 17px;&quot;&gt;Container2&lt;/font&gt;" style="text;html=1;align=center;verticalAlign=middle;whiteSpace=wrap;rounded=0;fontStyle=1" parent="1" vertex="1">
          <mxGeometry x="-6" y="-373" width="60" height="30" as="geometry" />
        </mxCell>
        <mxCell id="3Vd9QLCNDWLQVO_T61nP-34" value="&lt;span style=&quot;font-size: 17px;&quot;&gt;App1&lt;/span&gt;" style="rounded=0;whiteSpace=wrap;html=1;" parent="1" vertex="1">
          <mxGeometry x="-31" y="-340" width="110" height="40" as="geometry" />
        </mxCell>
        <mxCell id="3Vd9QLCNDWLQVO_T61nP-36" value="&lt;span style=&quot;font-size: 17px;&quot;&gt;Bins/Libs&lt;/span&gt;" style="rounded=0;whiteSpace=wrap;html=1;" parent="1" vertex="1">
          <mxGeometry x="-31" y="-290" width="110" height="30" as="geometry" />
        </mxCell>
        <mxCell id="c8mV4seKHAKRTPtKpaVG-2" value="&lt;font&gt;容器&lt;/font&gt;" style="rounded=0;whiteSpace=wrap;html=1;fillColor=#cce5ff;strokeColor=#36393d;fontSize=14;" parent="1" vertex="1">
          <mxGeometry x="-430" y="84" width="80" height="30" as="geometry" />
        </mxCell>
        <mxCell id="c8mV4seKHAKRTPtKpaVG-4" value="" style="rounded=0;whiteSpace=wrap;html=1;fillColor=#eeeeee;strokeColor=#36393d;fontSize=14;" parent="1" vertex="1">
          <mxGeometry x="-510" y="160" width="130" height="80" as="geometry" />
        </mxCell>
        <mxCell id="3Vd9QLCNDWLQVO_T61nP-8" value="&lt;font&gt;文件系统&lt;/font&gt;" style="text;html=1;align=center;verticalAlign=middle;whiteSpace=wrap;rounded=0;fontSize=14;" parent="1" vertex="1">
          <mxGeometry x="-480" y="160" width="70" height="30" as="geometry" />
        </mxCell>
        <mxCell id="c8mV4seKHAKRTPtKpaVG-3" value="&lt;font&gt;Docker Area&lt;/font&gt;" style="rounded=0;whiteSpace=wrap;html=1;dashed=1;dashPattern=8 8;fillColor=#eeeeee;strokeColor=#36393d;fontSize=14;" parent="1" vertex="1">
          <mxGeometry x="-500" y="200" width="100" height="30" as="geometry" />
        </mxCell>
        <mxCell id="c8mV4seKHAKRTPtKpaVG-6" value="&lt;font&gt;内存&lt;/font&gt;" style="rounded=0;whiteSpace=wrap;html=1;fillColor=#ffe6cc;strokeColor=#d79b00;fontSize=14;" parent="1" vertex="1">
          <mxGeometry x="-328" y="185" width="80" height="30" as="geometry" />
        </mxCell>
        <mxCell id="c8mV4seKHAKRTPtKpaVG-8" value="" style="curved=1;endArrow=classic;html=1;rounded=0;exitX=0;exitY=0.5;exitDx=0;exitDy=0;entryX=0;entryY=0.25;entryDx=0;entryDy=0;strokeColor=#003366;fontSize=14;" parent="1" source="c8mV4seKHAKRTPtKpaVG-2" target="c8mV4seKHAKRTPtKpaVG-4" edge="1">
          <mxGeometry width="50" height="50" relative="1" as="geometry">
            <mxPoint x="-451" y="130" as="sourcePoint" />
            <mxPoint x="-591" y="190" as="targetPoint" />
            <Array as="points">
              <mxPoint x="-490" y="105" />
              <mxPoint x="-520" y="150" />
            </Array>
          </mxGeometry>
        </mxCell>
        <mxCell id="c8mV4seKHAKRTPtKpaVG-9" value="" style="curved=1;endArrow=classic;html=1;rounded=0;exitX=0.5;exitY=1;exitDx=0;exitDy=0;strokeColor=#003366;fontSize=14;" parent="1" source="c8mV4seKHAKRTPtKpaVG-2" edge="1">
          <mxGeometry width="50" height="50" relative="1" as="geometry">
            <mxPoint x="-350" y="135" as="sourcePoint" />
            <mxPoint x="-400" y="220" as="targetPoint" />
            <Array as="points">
              <mxPoint x="-350" y="165" />
            </Array>
          </mxGeometry>
        </mxCell>
        <mxCell id="c8mV4seKHAKRTPtKpaVG-10" value="" style="curved=1;endArrow=classic;html=1;rounded=0;exitX=1;exitY=0.5;exitDx=0;exitDy=0;entryX=0.5;entryY=0;entryDx=0;entryDy=0;strokeColor=#003366;fontSize=14;" parent="1" source="c8mV4seKHAKRTPtKpaVG-2" target="c8mV4seKHAKRTPtKpaVG-6" edge="1">
          <mxGeometry width="50" height="50" relative="1" as="geometry">
            <mxPoint x="-306" y="90" as="sourcePoint" />
            <mxPoint x="-316" y="190" as="targetPoint" />
            <Array as="points">
              <mxPoint x="-266" y="135" />
            </Array>
          </mxGeometry>
        </mxCell>
        <mxCell id="c8mV4seKHAKRTPtKpaVG-11" value="&lt;font&gt;bind mount&lt;/font&gt;" style="text;html=1;align=center;verticalAlign=middle;whiteSpace=wrap;rounded=0;fontSize=14;fontColor=#003366;" parent="1" vertex="1">
          <mxGeometry x="-510" y="120" width="80" height="30" as="geometry" />
        </mxCell>
        <mxCell id="c8mV4seKHAKRTPtKpaVG-12" value="&lt;font&gt;volume&lt;/font&gt;" style="text;html=1;align=center;verticalAlign=middle;whiteSpace=wrap;rounded=0;fontSize=14;fontColor=#003366;" parent="1" vertex="1">
          <mxGeometry x="-384" y="130" width="70" height="30" as="geometry" />
        </mxCell>
        <mxCell id="c8mV4seKHAKRTPtKpaVG-13" value="&lt;font&gt;tmpfs mount&lt;/font&gt;" style="text;html=1;align=center;verticalAlign=middle;whiteSpace=wrap;rounded=0;fontSize=14;fontColor=#003366;" parent="1" vertex="1">
          <mxGeometry x="-303" y="107" width="80" height="30" as="geometry" />
        </mxCell>
        <mxCell id="wstskLnKllkO4mr8B3MF-1" value="&lt;font style=&quot;font-size: 19px;&quot;&gt;HostOS&lt;/font&gt;" style="rounded=0;whiteSpace=wrap;html=1;fillColor=#ffe6cc;strokeColor=#d79b00;" parent="1" vertex="1">
          <mxGeometry x="-520" y="-159" width="310" height="35" as="geometry" />
        </mxCell>
        <mxCell id="bneAhRaWCLOoodS1XEZf-4" value="" style="group" vertex="1" connectable="0" parent="1">
          <mxGeometry x="320" y="-203" width="130" height="50" as="geometry" />
        </mxCell>
        <mxCell id="bneAhRaWCLOoodS1XEZf-2" value="" style="rounded=0;whiteSpace=wrap;html=1;fillColor=#dae8fc;strokeColor=#6c8ebf;" vertex="1" parent="bneAhRaWCLOoodS1XEZf-4">
          <mxGeometry width="130" height="50" as="geometry" />
        </mxCell>
        <mxCell id="c8mV4seKHAKRTPtKpaVG-5" value="&lt;font&gt;Docker Container&lt;/font&gt;" style="text;html=1;align=center;verticalAlign=middle;whiteSpace=wrap;rounded=0;fontSize=14;" parent="bneAhRaWCLOoodS1XEZf-4" vertex="1">
          <mxGeometry x="2.5" width="125" height="30" as="geometry" />
        </mxCell>
        <mxCell id="bneAhRaWCLOoodS1XEZf-3" value="&lt;font style=&quot;color: light-dark(rgb(0, 0, 0), rgb(0, 0, 0));&quot;&gt;eth0&lt;/font&gt;" style="rounded=0;whiteSpace=wrap;html=1;fontSize=13;fillColor=#f5f5f5;fontColor=#333333;strokeColor=light-dark(#333333,#000000);" vertex="1" parent="bneAhRaWCLOoodS1XEZf-4">
          <mxGeometry x="35" y="33" width="60" height="17" as="geometry" />
        </mxCell>
        <mxCell id="bneAhRaWCLOoodS1XEZf-25" value="" style="group" vertex="1" connectable="0" parent="1">
          <mxGeometry x="470" y="-203" width="130" height="50" as="geometry" />
        </mxCell>
        <mxCell id="bneAhRaWCLOoodS1XEZf-26" value="" style="rounded=0;whiteSpace=wrap;html=1;fillColor=#dae8fc;strokeColor=#6c8ebf;" vertex="1" parent="bneAhRaWCLOoodS1XEZf-25">
          <mxGeometry width="130" height="50" as="geometry" />
        </mxCell>
        <mxCell id="bneAhRaWCLOoodS1XEZf-27" value="&lt;font&gt;Docker Container&lt;/font&gt;" style="text;html=1;align=center;verticalAlign=middle;whiteSpace=wrap;rounded=0;fontSize=14;" vertex="1" parent="bneAhRaWCLOoodS1XEZf-25">
          <mxGeometry x="2.5" width="125" height="30" as="geometry" />
        </mxCell>
        <mxCell id="bneAhRaWCLOoodS1XEZf-28" value="&lt;font style=&quot;color: light-dark(rgb(0, 0, 0), rgb(0, 0, 0));&quot;&gt;eth0&lt;/font&gt;" style="rounded=0;whiteSpace=wrap;html=1;fontSize=13;fillColor=#f5f5f5;fontColor=#333333;strokeColor=light-dark(#333333,#000000);" vertex="1" parent="bneAhRaWCLOoodS1XEZf-25">
          <mxGeometry x="35" y="33" width="60" height="17" as="geometry" />
        </mxCell>
        <mxCell id="bneAhRaWCLOoodS1XEZf-29" value="" style="group" vertex="1" connectable="0" parent="1">
          <mxGeometry x="630" y="-203" width="130" height="50" as="geometry" />
        </mxCell>
        <mxCell id="bneAhRaWCLOoodS1XEZf-30" value="" style="rounded=0;whiteSpace=wrap;html=1;fillColor=#dae8fc;strokeColor=#6c8ebf;" vertex="1" parent="bneAhRaWCLOoodS1XEZf-29">
          <mxGeometry width="130" height="50" as="geometry" />
        </mxCell>
        <mxCell id="bneAhRaWCLOoodS1XEZf-31" value="&lt;font&gt;Docker Container&lt;/font&gt;" style="text;html=1;align=center;verticalAlign=middle;whiteSpace=wrap;rounded=0;fontSize=14;" vertex="1" parent="bneAhRaWCLOoodS1XEZf-29">
          <mxGeometry x="2.5" width="125" height="30" as="geometry" />
        </mxCell>
        <mxCell id="bneAhRaWCLOoodS1XEZf-32" value="&lt;font style=&quot;color: light-dark(rgb(0, 0, 0), rgb(0, 0, 0));&quot;&gt;eth0&lt;/font&gt;" style="rounded=0;whiteSpace=wrap;html=1;fontSize=13;fillColor=#f5f5f5;fontColor=#333333;strokeColor=light-dark(#333333,#000000);" vertex="1" parent="bneAhRaWCLOoodS1XEZf-29">
          <mxGeometry x="35" y="33" width="60" height="17" as="geometry" />
        </mxCell>
        <mxCell id="bneAhRaWCLOoodS1XEZf-33" value="" style="group" vertex="1" connectable="0" parent="1">
          <mxGeometry x="320" y="-117" width="440" height="40" as="geometry" />
        </mxCell>
        <mxCell id="bneAhRaWCLOoodS1XEZf-34" value="" style="rounded=0;whiteSpace=wrap;html=1;fillColor=#dae8fc;strokeColor=#6c8ebf;" vertex="1" parent="bneAhRaWCLOoodS1XEZf-33">
          <mxGeometry width="440.00000000000006" height="40" as="geometry" />
        </mxCell>
        <mxCell id="bneAhRaWCLOoodS1XEZf-35" value="&lt;font style=&quot;font-size: 16px;&quot;&gt;docker0 (bridge)&lt;/font&gt;" style="text;html=1;align=center;verticalAlign=middle;whiteSpace=wrap;rounded=0;fontSize=14;" vertex="1" parent="bneAhRaWCLOoodS1XEZf-33">
          <mxGeometry x="8.269230769230768" y="8" width="413.4615384615385" height="24" as="geometry" />
        </mxCell>
        <mxCell id="bneAhRaWCLOoodS1XEZf-37" value="&lt;font style=&quot;color: light-dark(rgb(0, 0, 0), rgb(0, 0, 0));&quot;&gt;veth0&lt;/font&gt;" style="rounded=0;whiteSpace=wrap;html=1;fontSize=13;fillColor=#f5f5f5;fontColor=#333333;strokeColor=light-dark(#333333,#000000);" vertex="1" parent="bneAhRaWCLOoodS1XEZf-33">
          <mxGeometry x="35" y="-5.6000000000000005" width="60" height="13.600000000000001" as="geometry" />
        </mxCell>
        <mxCell id="bneAhRaWCLOoodS1XEZf-39" value="&lt;font style=&quot;color: light-dark(rgb(0, 0, 0), rgb(0, 0, 0));&quot;&gt;veth0&lt;/font&gt;" style="rounded=0;whiteSpace=wrap;html=1;fontSize=13;fillColor=#f5f5f5;fontColor=#333333;strokeColor=light-dark(#333333,#000000);" vertex="1" parent="bneAhRaWCLOoodS1XEZf-33">
          <mxGeometry x="346.00000000000006" y="-5.6000000000000005" width="60" height="13.600000000000001" as="geometry" />
        </mxCell>
        <mxCell id="bneAhRaWCLOoodS1XEZf-56" value="&lt;font style=&quot;color: light-dark(rgb(0, 0, 0), rgb(0, 0, 0));&quot;&gt;eth0&lt;/font&gt;" style="rounded=0;whiteSpace=wrap;html=1;fontSize=13;fillColor=#f5f5f5;fontColor=#333333;strokeColor=light-dark(#333333,#000000);" vertex="1" parent="1">
          <mxGeometry x="493.75" y="-44" width="82.5" height="20" as="geometry" />
        </mxCell>
        <mxCell id="bneAhRaWCLOoodS1XEZf-57" value="" style="endArrow=classic;startArrow=classic;html=1;rounded=0;startFill=1;" edge="1" parent="1">
          <mxGeometry width="50" height="50" relative="1" as="geometry">
            <mxPoint x="534.7099999999999" y="-47" as="sourcePoint" />
            <mxPoint x="534.7099999999999" y="-77" as="targetPoint" />
          </mxGeometry>
        </mxCell>
        <mxCell id="bneAhRaWCLOoodS1XEZf-59" value="" style="endArrow=classic;startArrow=classic;html=1;rounded=0;startFill=1;" edge="1" parent="1">
          <mxGeometry width="50" height="50" relative="1" as="geometry">
            <mxPoint x="384.71" y="-123.5" as="sourcePoint" />
            <mxPoint x="384.71" y="-153.5" as="targetPoint" />
          </mxGeometry>
        </mxCell>
        <mxCell id="bneAhRaWCLOoodS1XEZf-60" value="" style="endArrow=classic;startArrow=classic;html=1;rounded=0;startFill=1;" edge="1" parent="1">
          <mxGeometry width="50" height="50" relative="1" as="geometry">
            <mxPoint x="534.71" y="-123" as="sourcePoint" />
            <mxPoint x="534.71" y="-153" as="targetPoint" />
          </mxGeometry>
        </mxCell>
        <mxCell id="bneAhRaWCLOoodS1XEZf-38" value="&lt;font style=&quot;color: light-dark(rgb(0, 0, 0), rgb(0, 0, 0));&quot;&gt;veth0&lt;/font&gt;" style="rounded=0;whiteSpace=wrap;html=1;fontSize=13;fillColor=#f5f5f5;fontColor=#333333;strokeColor=light-dark(#333333,#000000);" vertex="1" parent="1">
          <mxGeometry x="505" y="-122.6" width="60" height="13.600000000000001" as="geometry" />
        </mxCell>
        <mxCell id="bneAhRaWCLOoodS1XEZf-64" value="" style="endArrow=classic;startArrow=classic;html=1;rounded=0;startFill=1;" edge="1" parent="1">
          <mxGeometry width="50" height="50" relative="1" as="geometry">
            <mxPoint x="694.71" y="-123" as="sourcePoint" />
            <mxPoint x="694.71" y="-153" as="targetPoint" />
          </mxGeometry>
        </mxCell>
        <mxCell id="bneAhRaWCLOoodS1XEZf-65" value="&lt;font style=&quot;font-size: 13px;&quot;&gt;ipv4 ip_forward&lt;/font&gt;" style="text;html=1;align=center;verticalAlign=middle;whiteSpace=wrap;rounded=0;fontSize=12;" vertex="1" parent="1">
          <mxGeometry x="550" y="-73" width="110" height="24" as="geometry" />
        </mxCell>
        <mxCell id="bneAhRaWCLOoodS1XEZf-66" value="" style="rounded=0;whiteSpace=wrap;html=1;" vertex="1" parent="1">
          <mxGeometry x="290" y="70" width="470" height="230" as="geometry" />
        </mxCell>
        <mxCell id="bneAhRaWCLOoodS1XEZf-67" value="" style="group" vertex="1" connectable="0" parent="1">
          <mxGeometry x="310" y="109" width="130" height="50" as="geometry" />
        </mxCell>
        <mxCell id="bneAhRaWCLOoodS1XEZf-68" value="" style="rounded=0;whiteSpace=wrap;html=1;fillColor=#dae8fc;strokeColor=#6c8ebf;" vertex="1" parent="bneAhRaWCLOoodS1XEZf-67">
          <mxGeometry width="130" height="50" as="geometry" />
        </mxCell>
        <mxCell id="bneAhRaWCLOoodS1XEZf-69" value="&lt;font&gt;Docker Container&lt;/font&gt;" style="text;html=1;align=center;verticalAlign=middle;whiteSpace=wrap;rounded=0;fontSize=14;" vertex="1" parent="bneAhRaWCLOoodS1XEZf-67">
          <mxGeometry x="2.5" width="125" height="30" as="geometry" />
        </mxCell>
        <mxCell id="bneAhRaWCLOoodS1XEZf-70" value="&lt;font style=&quot;color: light-dark(rgb(0, 0, 0), rgb(0, 0, 0));&quot;&gt;eth0&lt;/font&gt;" style="rounded=0;whiteSpace=wrap;html=1;fontSize=13;fillColor=#f5f5f5;fontColor=#333333;strokeColor=light-dark(#333333,#000000);" vertex="1" parent="bneAhRaWCLOoodS1XEZf-67">
          <mxGeometry x="35" y="33" width="60" height="17" as="geometry" />
        </mxCell>
        <mxCell id="bneAhRaWCLOoodS1XEZf-71" value="" style="group" vertex="1" connectable="0" parent="1">
          <mxGeometry x="460" y="109" width="130" height="50" as="geometry" />
        </mxCell>
        <mxCell id="bneAhRaWCLOoodS1XEZf-72" value="" style="rounded=0;whiteSpace=wrap;html=1;fillColor=#dae8fc;strokeColor=#6c8ebf;" vertex="1" parent="bneAhRaWCLOoodS1XEZf-71">
          <mxGeometry width="130" height="50" as="geometry" />
        </mxCell>
        <mxCell id="bneAhRaWCLOoodS1XEZf-73" value="&lt;font&gt;Docker Container&lt;/font&gt;" style="text;html=1;align=center;verticalAlign=middle;whiteSpace=wrap;rounded=0;fontSize=14;" vertex="1" parent="bneAhRaWCLOoodS1XEZf-71">
          <mxGeometry x="2.5" width="125" height="30" as="geometry" />
        </mxCell>
        <mxCell id="bneAhRaWCLOoodS1XEZf-75" value="" style="group" vertex="1" connectable="0" parent="1">
          <mxGeometry x="620" y="109" width="130" height="50" as="geometry" />
        </mxCell>
        <mxCell id="bneAhRaWCLOoodS1XEZf-76" value="" style="rounded=0;whiteSpace=wrap;html=1;fillColor=#dae8fc;strokeColor=#6c8ebf;" vertex="1" parent="bneAhRaWCLOoodS1XEZf-75">
          <mxGeometry width="130" height="50" as="geometry" />
        </mxCell>
        <mxCell id="bneAhRaWCLOoodS1XEZf-77" value="&lt;font&gt;Docker Container&lt;/font&gt;" style="text;html=1;align=center;verticalAlign=middle;whiteSpace=wrap;rounded=0;fontSize=14;" vertex="1" parent="bneAhRaWCLOoodS1XEZf-75">
          <mxGeometry x="2.5" width="125" height="30" as="geometry" />
        </mxCell>
        <mxCell id="bneAhRaWCLOoodS1XEZf-79" value="" style="group" vertex="1" connectable="0" parent="1">
          <mxGeometry x="310" y="195" width="440" height="40" as="geometry" />
        </mxCell>
        <mxCell id="bneAhRaWCLOoodS1XEZf-80" value="" style="rounded=0;whiteSpace=wrap;html=1;fillColor=#dae8fc;strokeColor=#6c8ebf;" vertex="1" parent="bneAhRaWCLOoodS1XEZf-79">
          <mxGeometry width="440.00000000000006" height="40" as="geometry" />
        </mxCell>
        <mxCell id="bneAhRaWCLOoodS1XEZf-81" value="&lt;font style=&quot;font-size: 16px;&quot;&gt;docker0 (bridge)&lt;/font&gt;" style="text;html=1;align=center;verticalAlign=middle;whiteSpace=wrap;rounded=0;fontSize=14;" vertex="1" parent="bneAhRaWCLOoodS1XEZf-79">
          <mxGeometry x="8.269230769230768" y="8" width="413.4615384615385" height="24" as="geometry" />
        </mxCell>
        <mxCell id="bneAhRaWCLOoodS1XEZf-84" value="&lt;font style=&quot;color: light-dark(rgb(0, 0, 0), rgb(0, 0, 0));&quot;&gt;eth0&lt;/font&gt;" style="rounded=0;whiteSpace=wrap;html=1;fontSize=13;fillColor=#f5f5f5;fontColor=#333333;strokeColor=light-dark(#333333,#000000);" vertex="1" parent="1">
          <mxGeometry x="483.75" y="268" width="82.5" height="20" as="geometry" />
        </mxCell>
        <mxCell id="bneAhRaWCLOoodS1XEZf-85" value="" style="endArrow=classic;startArrow=classic;html=1;rounded=0;startFill=1;" edge="1" parent="1">
          <mxGeometry width="50" height="50" relative="1" as="geometry">
            <mxPoint x="524.7099999999999" y="265" as="sourcePoint" />
            <mxPoint x="524.7099999999999" y="235" as="targetPoint" />
          </mxGeometry>
        </mxCell>
        <mxCell id="bneAhRaWCLOoodS1XEZf-88" value="&lt;font style=&quot;color: light-dark(rgb(0, 0, 0), rgb(0, 0, 0));&quot;&gt;veth0&lt;/font&gt;" style="rounded=0;whiteSpace=wrap;html=1;fontSize=13;fillColor=#f5f5f5;fontColor=#333333;strokeColor=light-dark(#333333,#000000);" vertex="1" parent="1">
          <mxGeometry x="495" y="189.4" width="60" height="13.600000000000001" as="geometry" />
        </mxCell>
        <mxCell id="bneAhRaWCLOoodS1XEZf-90" value="&lt;font style=&quot;font-size: 13px;&quot;&gt;ipv4 ip_forward&lt;/font&gt;" style="text;html=1;align=center;verticalAlign=middle;whiteSpace=wrap;rounded=0;fontSize=12;" vertex="1" parent="1">
          <mxGeometry x="540" y="239" width="110" height="24" as="geometry" />
        </mxCell>
        <mxCell id="bneAhRaWCLOoodS1XEZf-92" value="" style="endArrow=classic;html=1;rounded=0;entryX=1.008;entryY=0.596;entryDx=0;entryDy=0;entryPerimeter=0;" edge="1" parent="1" target="bneAhRaWCLOoodS1XEZf-70">
          <mxGeometry width="50" height="50" relative="1" as="geometry">
            <mxPoint x="460" y="139" as="sourcePoint" />
            <mxPoint x="450" y="59" as="targetPoint" />
          </mxGeometry>
        </mxCell>
        <mxCell id="bneAhRaWCLOoodS1XEZf-93" value="" style="endArrow=classic;html=1;rounded=0;exitX=0.005;exitY=0.604;exitDx=0;exitDy=0;exitPerimeter=0;entryX=1.007;entryY=0.58;entryDx=0;entryDy=0;entryPerimeter=0;" edge="1" parent="1" source="bneAhRaWCLOoodS1XEZf-76" target="bneAhRaWCLOoodS1XEZf-70">
          <mxGeometry width="50" height="50" relative="1" as="geometry">
            <mxPoint x="610" y="169" as="sourcePoint" />
            <mxPoint x="410" y="149" as="targetPoint" />
          </mxGeometry>
        </mxCell>
        <mxCell id="bneAhRaWCLOoodS1XEZf-94" value="" style="endArrow=classic;html=1;rounded=0;exitX=0.566;exitY=0.907;exitDx=0;exitDy=0;exitPerimeter=0;entryX=0.521;entryY=0.082;entryDx=0;entryDy=0;entryPerimeter=0;" edge="1" parent="1" source="bneAhRaWCLOoodS1XEZf-70" target="bneAhRaWCLOoodS1XEZf-88">
          <mxGeometry width="50" height="50" relative="1" as="geometry">
            <mxPoint x="230" y="249" as="sourcePoint" />
            <mxPoint x="280" y="199" as="targetPoint" />
          </mxGeometry>
        </mxCell>
        <mxCell id="bneAhRaWCLOoodS1XEZf-95" value="&lt;font&gt;Host Server&lt;/font&gt;" style="text;html=1;align=center;verticalAlign=middle;whiteSpace=wrap;rounded=0;fontSize=15;" vertex="1" parent="1">
          <mxGeometry x="480" y="-234" width="110" height="24" as="geometry" />
        </mxCell>
        <mxCell id="bneAhRaWCLOoodS1XEZf-96" value="&lt;font&gt;Host Server&lt;/font&gt;" style="text;html=1;align=center;verticalAlign=middle;whiteSpace=wrap;rounded=0;fontSize=15;" vertex="1" parent="1">
          <mxGeometry x="470" y="77" width="110" height="24" as="geometry" />
        </mxCell>
        <mxCell id="bneAhRaWCLOoodS1XEZf-97" value="" style="shape=image;verticalLabelPosition=bottom;labelBackgroundColor=default;verticalAlign=top;aspect=fixed;imageAspect=0;image=data:image/webp,UklGRhiTAABXRUJQVlA4TAyTAAAvqUb/AFUPJEmS4zZdhf+/GoPBQPJyjYgJyFsgg+xvEh3IxhsM7RZPkmi+kWc2e/E8Na6y5X+NBTqhbk7UxsyhVpSdcfLDasF+pwUMfDbHTzsjuMGEKklkQAv1jsb5lMSSzMoGpLnWKrIPLEiwTJ9FslYxWISJciXqFSlXoubMXiVqwg1FoknYE0iThNx1gepWBeILyLDmz80N7ScPl6b5/5ZNlpSaGdzd3d3d3Z2du7u727i7u8+0u7u7u3v3kdbTYyei8r6v+7rlua7r/j9P9p07wm3bUjgrS5yRFe6JO/S41DJxuNidSGxFxsSBN+CQgXtimQscVi5nNfIGHtylsN+4V7AbuUe22FPB2ImzmtlNPDhsrZDRWsG28GKX7bLDXQrfQY8V1rptxk7gnuiNu41v0R0Peka3FVFduFsuEpcOdoeMSJzRFZJRwdLtwZ1Ve6L9Dv4ja0uc2owUTuK6snHZ4u61wauxfgP4WQ3jPolLBSvGcds2+QJwd3eW3ZFIr5Bc4gvJtrYde3PfK19sO7Vt23O3464Oey49is46Nb7k+23bti05t7Ydc3VN8s7Edj7Etm1USaXKbTrzp6R052P7dLFt28mg/xZg2w7bxjlfdiw3cUB0ZT4gtkQxi3YG7/v/yx3ZmcvMzMzMzMzMzMzMTMvMzMyzm51lZmZmZmZ6nt/zjD1zfOA5sxmHmRzOBQcczoUwO+AqfAKjcLJyMXKYXEU64dX0cWhC1TrU4cihah1yGXIfWvkPOKHLPCN9w3FgFE6sI41c3c5SPFVo5HRMrsK+0jiMrkJz0VUuOpLD7OpuHeac0EIZF5dvOX/AE/KGV+vQtJehCo0cqnItjaZfuQ0n1raRpdHlO6uVQxWOHCpPsVOFLYU5mSr8a9xe8JWsMDo15zKfMJPbq6lWF6s4zOQwXL4O07lMVeSVy7ClVAyXuyONpgpdnio8VfgEdveWEV1bAwgA2f2ybdtjU5vtxk6b9QjN7Y38PekBbNu2bWQ52rYdm3PeY3smtm2jS1aQOse02YSzhXSsVdu28U5s2yr6TwGSJKmRFAm6Ftqn4ay0QQtY5l4zbdD2r78bN78yvOx73A3IUatya62tTZSJl1xbm7h2p7Y66ziWNiuvUeuuZHvHOlLs6tg7Xsm78pF9HB2xvIKVLCk+WlXH1TlrHYH3WKtzpD1H8ZH2HK+OVj6rHFlnPXN2fDTzn/39vt/v73eOjv46//8/rJSZ2zAz6hQ1o1KoDOHEC1Nm5u38ygz2zrqsUjjxK78to5MZhVRuGJdKYWa2Z57MKbenzMxtQB6lzBxSmdnVTMrMpHThXX4Be8JJmZlcbk+Z7b5iZmZ01mutwlBm0IuAwvCKYeEUwvSq75iZQr8yM4O3zIzeUw6nHPqWG3jHnJTJM16YRN4w41HSV1VpobSnFPAoO3PKzA1zFkq7fuMJ6lVnoQxhWJhpWGXmNvwyzUJBrzxVpiEVdjO1hv3/qkTa7yiHUJAQRUbsHsfWcXRm7O3u7u7u7nq1z9vtmp3tfazVESREwAJBkZIQQeQIwqEPpQf+/1el/f/vwTzAoVsBg4lgjBBMrOlLF6+Fr+5+vbu7u7u7c3F5mStgzikgKqiEMo+AiIhiIHCmOBEBZ/+90basJ65tWzVs5sL5FSg9UDCQRJAs/6Eb/7+qTdmMmJCInCI0tQ4ogAYccofo9fddd3d3d3d3d5dX5lHsue+SErl1QEwTpwasACIKsQIgPk8FODTgbun6NsFGFjJzZm6KS+bkDh0QOzVQxlZApiXQh1OAUwcHKeAOBThUQAU7REROC84dCtihAyo4uLbA0AENML8howh7hlLeaDNyZm58MzTdAqCEdyhg2QYogJmDxUS0QOYUsPMWQAmkECRJNm31+fvfwPN7l//Ztm3btvFxIUiSpFqZ3efuisNzdxd4978T/WfEtpGimWOmWd7NvZcEtagq8V/iv8R/if8S/yX+S/xX6KhHmqQ8lst8mR6TYmyMhpESDwYuybONnUOu8SXX8UZp5UlAvFY7y2aNowQYweRb43fVhrxXyCSZ4JHyapgPowcARsSEmHWWlCJTWbyaSMtpM+2GgctdrXpXXv8w7BD9p9o8ANzYvKmK7ukFqZT8pkIQj9SrllkqQwPAxFlEykmzETOC2cdhBukPAIZeMi3QEz0jQl4SinikJjXInBkxAJNkWakvYkYxQ95xLoB3nSP1Ilcq0QVCEY/Un7SzA2BkzJ34ETOQObiNPcBsaBhJD8jRBcIRj9SaLlkSyWEULJAGI2Yos55MYZB8cXRId1AbwhGP1JeKGDcwEhZM4xEzmBk0byyMi7Lphm6RyND6F454pJ50xmoBpkKCiBnO/NZxAWZLW3QN0ZAj9S8c8UgNaYAJAmOgsLQTMeOZ30/jDuOnFrrADa1/lmWFIx6pG0ViD1OkgYgZ0aw+A9ivDCeyIUcaQhKP1AnpogFYWNqImCHNhV4swILoCCe1m65MTk5CEo/UB9ncgLDSEDOoKRAGm2mbTuicrgiglL/wwyN1clHPGHCvImJGNRtxh+ng4t0pCjddGTIJSTxSD2/vEXcArIVYYq2tp4Np0xodoPI1j5Qgpiok8Ugd/IqngvNdP7HkWt+XDmZNG7SHt5M6AJ2EJB6pfu8T+/64lmBr6+7wkq3TDnYmigBduVLKskISj1S9YwT4rm/NkmxtJAyWRatEtY+KHFQhJ2GIRyr/8jbPH//BEm0VgOSV0gptEtwxvpRJCOKRqr9MHsHTsWRbFwvjwdWFdhKSeKTC7R53EzwlunWhGaCvZmgJD6T6keF/YYZH6uByKdj347WEW6t3h1VBPwlFPFLdl9GrxWu1pFtpYOh6QKpfgR5UJRzxSFX7J/iXR6Bdv39cuOLGiDMNDFYRk1LEskIQj1T2ZeIZ3OKftsRbvxUbWwFBcS6BMSbqSGT0X0jikSq2V/xcS76VF4ZybZxm8TtHOydzZEhFOOKRKr58YXzXj0W/Bg2DAv5N0DwRqb193SRyEcsKRzxSwS4Bb9n6sF0+rWHmdWVk1V2rbdaFwHoXHj7/yqjdVNU2ZG60g1ys/XSUw6MYBsiZUjTnCKV6Biw9VSaYPj46acMtySEV0lOFJB6p3MtbPMT5v0Y/1rrvP4BVKYLdtsv7u/hhEXi4XzNCVbRkfSG1kyAjoVK1wZgbQR1Zif27nnt9NELTmAYamqCeypkemXtFXzlSuT49ztP6tQalr8B9ePEeeCR7aQGpjuTyHttOB5AOSM7efHkjdIyDEWMQvl6rlyWnsgGbOqmfIGO/cyQ9VSllOdIjg53xCN0GF25OgpzwiHYtFRdrLXnlSNVeqt8QNxBFu7eQyyeV3Oqrjuws5LpJAAkDhelCpHSU3Z4qvQBw91Xl2y1DT4dWB2OkJurGH/FUdaRMJGU50SODnfEI2X6O9uAkgDvrqau5ZVJXjlSt2bhBGyVBy3D3rg87oleWw5hS4Zuu1QEAa9H4WnKqXLBivHZvlcclys4JKX4O9MjIznjIWMva9piXAMC9+1m03To16CtHKtUbwOuIpLWI0osa5ZNZJm+naIhHlaqLGL0LYPWqIHpyxzBjauZoro3THNrtEqpAip/zPDJXZjzsNofPHvqxSThqHw7UlSPVqvoScWWhcaMlc+XvW1MyF/PObKNEpwRanQCG8al7eVn7D+tilpIi5Y1T3SNkVR2fmnZCkXII3tPFXmBAaW35RNYZgbddLkNRuHXhTvSOAjhGXTJBHQY4jJrqqRUfnaYwDTREi5+beaS/Fm5zeHfMJyBGYDlSoT4izsKGpDxreRENyyBDgJa89mLq5pt1ox9kLEFXu56d6B0A6KTGN9GVGWbQYJ46EfcHhTBAHZgFOURQi5/TPDJnZjy2PLk65gXAw7WHbLd8f//u97mRV45Uqi+HjxSoIwoUr/CAFemX1IQl9RlYa8U1BdlOdJoA3AhBGQTmQY0kc2wIuuLX2h4ZwISH/IzH1saWnsm9/xG7wZjz2Bu4G4XlSHV6/PhdAVizNlCUPd0qcueF4wAgoVJme8heJgJZ8x8tstwIAMtYrRCNy38AYHtNHcv0Ud3S4ETbHVKwLioqCA2MoENS0jGAABeGIWBIgGtYQlI6gQ9RpDqy1dNVXuDMNuVwJSiHgcnwGEjxa3uq1JFyEcthHhm4ICY8rPSMx1aJo+lu9JUjFar6dy7pxwXgHsm9n46rHjjP4XLjyUaGAQy9oiUK1AzNdgA9q7p3R1WL1ziAG3U3sqVE3FjJogjrPMTEGO+iyE7VWs1Tn0gs3sfmR07VEMWvQ35M7YucUMlZHhn4jEcQEx5WfsbDA4HlSHV6knih1jdxuf0K4QwAC7twiRzBa7nv/f8H4KQrJhLcHvOz1fdBlZmfVKw6srZeAKuW+1mKqlRQDI8xwNFco7dtGWNirkvAWR4Z+IxHEBMeVjzj4QOJ5UhV+vK4TyQcKz/yg7mHZfGaCQCjLavJz/SHzyN47s1eA4D7+a34a5CUWQeuOT56trtvhDi/1KEKUlM5yyMDn/EIZMJDPOMhj8BypEI9PICDBuHhavxWxteTJc5aGU9fp8tbB250HsZGUkQyHszFVQAQ4MVcLkHVJBoMCtXNAljNpryulqQMATbVUgNHqAv/zKakppJj/1rZI/1NeHjNePhEYjlSmd4Abt6GMp9yNFf/AHp1F1CWR10S7gYgvahWVdV8dS4QMfROqfsBPaj2KwZA0bVSS1OGhRmQ/TESEGLGgZr6anHQ4AUw4eG8dfpGZTlSmb/ySDbQr6YS+o7roVRH4j3d6AVGkmmlBBwEYeoI7Tk1sqCpyPWvAsDSlAqVqPwDTBrn6tCz9bGKi/AM5axPqd8Abj74GQ+/Ex6BobEcqU43iI8YGgE+PIEDoXc8eRmMYe7AiSerCBO/vntQuLNWrh/A0KIG1VzFC8ZLSlJT95vZ9Bw7QhEg4yAeP44U/IyH/wmPYJBZjlSlb4irC8dbB1bz8ykeTOxspRMq3Oh4shNzkG7mKddsLgCLX205D7OVXYF7lWR/jAFCXA1agHKSilb2yAAmPAJBZTlSmWZht+E4yZO/AORUqSijt0/IHJJpLcnO3gd2+J8O0nkrcEHrBTCg9LT56rd41TBKqsDZYs1eBYMcLIPRARUt7JFBTHgEgc5ypCKdAc49BJTDqbbX9OQELoSaTyGvCCZAgToSTYbuUcbJg/ueK/ENXPfo0V8AD0xM+xqUdS5wYCR8VMrh9JIhAyoqta5cymphjwxkwiMAhJYj1Qiw4dj4HwCw8NnGixGVZ0UX0jMJ4FallG40r52/HpEbK3T9wAGeB7Hd7/ltyutotzn8vMFhqy8tvNn/LwBj0L6ljPmWqN8ccVRzVYmZqABUTsovPimO4KiTh3rkrxb2yCAmPFy+nB9kliM1hu4Yd/Tl4Q0J6UUU7wKA/lFEWwdWMyTO+ssDMyMAsPRlparao73wHsAy96/xeP1n9mNE1rc9DY8q7/nxDBX5s+8oN3LkLzr0r4WrM4gJD5dHJ8v9CI40liN1IcHCixq/hnsM6OhZ1V51n0LeuqNj8TMth0tNswA4vy35bUXehZcyn5nATFEZlKH/Fgm089XiBDPhIZzxENsmhd3msNjPOY69L43t5rC2aC2F5UhtaGj6pS8DqOWNYTTMZcNuuqvOuNPXB67FSfGMyqxOMTm8q9J2rMtjPXG8ZB453RJyWK9zc+0unlqscQ+UxdtMCpF3cgMeqntlBEMFOfQfYhYd7kF+SK2lCWTCQ3bG47DPGMI6IV2Upa8cqRHiNgf/b6nKNm9UiWnyc0/3dLQ9Ko9mnRA4eycEcc8gzKTcaDlnFNh53PimhvVvd70Um2sK66sYLLwKBm3bI4Y8nIrVwiMegUx4yM54bHly4ZmIXYilsBypUBEvkkNeTA09nIo48FcLj3gEMeHhMeMh/2qvNJYj83ZSDkfQKA7a6IG/WnfEw/+Eh9eMB/3lyDydLOiBv82iHawiEY54ZP6Pp0pNIAzxyPyeb6U9mVIo4pF5Q0KS6txNiL6YQIfmUmp9pkJYUp15PI4n7RxvPPFf4j+6sz0S6qQO6C4ypVTKsljATZal6dCM/p7RyQPlgivlnZD2YgML6GkotneXcw4T65FxwY7Jzkg1Y2ZOZZFdprO8SkfpIPdyL2IBOOXyYEv3o+5bMCNlZs6qK03NLYytR5q+5gUpM2dLkPbuQSugZ7C7/Y9mzJwuaM4hTK5HmruWnpQ5q7YP2NhfA+1VZk57WnIFw+uRRm5mlZl3Ta5t+8QSQVWubTwzV2fmBubXIw1bue9UCHND+6AlhRpsb2Ce21fOAUywRxq0cl/KPH4RYgmifvZ45rSvHHkMsUcassVJytzfYomiWvqZ0+lRxxh7pAHrHmIuOt4iizeKzEPd0cYce6Tpqoxjrk61xFFTq8zjKlFGyTnSaM1MOV2MWAKpZVJOZ0YYLedIY1XpZ94lqVgSqcryzP2VyCLmHGmouudy2mzJpJpTnvs3o4qcc6SJ6su4WLGEUpUiZ30RRc850jiV+zmbbomlpmfcX44kgs6Rhul0TolwOtWSS01NednTiSKSzpEm6dIbuFqxBFOVKjdcegTRdI40RwMpF8uWZKpc5HQgeog6R5qiv5nxLoglmzo7zv5m5FB1jjRDfzPjnRNLOHXqYy9RQ9Y50gQNZLx3Szq1d84GIoauc6T5ufQ0Wrf8CdDNRfQEAQyoP30eJvfoTy89Wgg7R5qe02mQnEt5HOsc5zM56+Y31RW/N1jvaBUm+Q8f+uy44XS059LTSL4dw3Ok2Skvy0Ur5WHcGoKoXvMJF9y2WrcM0KW8DJjkP2CpIi9bjhJ15cgIznjE8RxpdPq5Wq4h87eIJK4xCD9xfwB1KFe5P0qUlSOjOOMRy3OkwenjtCJ50//j8KqX8KVpg62k3Kc1/VwtU9CMR7nK/eamO8umWj+WuQ/gPuD6Li4AV3054mCnZtnfjA5V5cigZjwIJEeamspcnm59uRVr7ZbG9CtbPr2LVxadN/+NGV3NHOx0nluJDEXlyMBmPCgkRxqafi5af27EmVgf+MUvAIB3TKlKe/Sihix42Bfsv97X2xdQhiGYRUOsCZIIQ3lGMhN7LxntYBH50FcUkiXQTH6OW5AuozwrYZsPmRB4illT7Ko4KnGnJm1Zex/+9b7eRQBtYIJ9skVX59+G4Y2vevHqOMiZnkTd8bHt5zi2zu/3xN2bur9N/02FHOPm7H9/ZKgpRwY440EhOdLIzOS0Egj7Xw4lOj1tm7at9IGOGy26U0TNvQzZ4gYVQ68oz4NlOSW+swWAIpJyVV1LuqYFUHFma/BKjlPb9hkArMytuw+33wPAw/2dGzunVGZqSj8XLR3NeNgi95uYSsrNNhh25Sf+C86o8lruR8comJFTU0m8zkhvBYwopxEwzBoOAIdYfouvvvf/DVacoiXE+dnBXceuiI2bj1bHaUVLZnJaCXTGQ2LCgxpmPCopzzQw43h5G5TtYWPMZ2rcqmiUVgvYVnOxojWB5UYou6MO2WuiV6H/nKxxfxVhDGp+j4ejVqXYmFnL87iIUFGODHbGQ2LCIwIzHjE0RxqXbk4r/nm0YlfEn17vyyDGcFavoHwanGjxpI0BAEDaqTr651S5mlwutjNykIm9cbYs68l33AXJSGtaOtPRdPLzUMuzIj0NeAFgr0LXj+P9Hx1Dv6SqW0PG8fI24BkPmQkPYpjxsMvzOOMyxIsRG5hpV+l6la3ZTpSn5S1C6oeBDbz4qnYKeVvtRstb+KqqToDuDNkQmGpbpIVdeNYDFlchWYJcVz0D5I8QG0uQt1E/nuias7Ls9sof27QNDmu32Rbx8yCAeEg/ujmtBD3jITXhQQwzHpWUuw3LdK7a4Nz4Q7gx5rR7fQ30s7arqsh1CccBwI3uEZnKSLIGlQrSoSyyyAgA/f3Suh56ReqsLiYuyg07Piu4vOOijaVV5emRoJ4cGfSMh9SEBzHMeNhleMislFOeGqDHcUTHbZ/KxlktYt4d8N13768TW1rJ6MngBQBst+XVj8LIeOGzkmQ02HcxPoNjpsXp7f2euPp9KpyWNWM6V23gMx5yEx5hz3jE0hxpVPpqvuQ3+JQ6648C8OKrWijUWpPwP54ngBe/R3InBJ3w1yET/8zla32N+PrFv316UU55avAzHlITHjbMGY/4miMNSjnlliB96M8AAP+f3BDqRveIMOtckn/7B1dBpKLoBGkX6hT5jY8t7n4PSwun5QhQd448oiNHSk14WGqY8bBF7jMofdxvg3TM574CwJm56djq/3ieknmYcyxbmjWcSEWuSt0RvXKQMjsA4CvTki6Lh6TANZDx4McsVxaX4+93W/ZzXwQoO0c+jj/uIDXhYclhxqOF07I5mcstQfoVjh+X2gCVzTJWFYTlk4LXT7wLmcocct7I8jLBl0HUqRsgryJutOoWRWVE/NXCc3Wij/ttCDMeUhMelhxmPGw/9xmTmTzeBuLrO6x3df2ZoMb/VCn9nusiJu1zH7eCKFnJavUAz0PizNsaskAwvodOj+xsbXYAwMlSrxzAyZrUR7AZzzM1Yi63hDHjITXhYelhxqOF5xqTKi9CglHWy0OfM6jewf//dr4z3tENj5CbU2Fp6xXiLwfB0tmCfC38Rj8xDABIq5G/KPWjLqVsCZiD3kPlvW+d2pUyW7OJ+AJvlrDV4buTnbs6GnpusyxisJ/NVX2YyeNtGDMeUhMelh5mPOx4nmlIdkS4wQYDEvYPugi9vwniGUsHJmARxSGQa0DWa6mxEAQnkmOM7OWUOIXjQEz07w6VaV+ewkxRsIVMOsrh/V7cB7BBu1ccvlfQBm7Rhir/7DBmPOQmPCxBzHgsQrhqSHq4PXBHqvfDHjGSGwQ7RpKpyNeshhVzsEb2FwUArE0209Ubg+Kwdu7RhRZusGHMeMhNeIQw4xGTc6QZSXkwaA+Wi3quSoZ6O9NIa5VkigP32FnrUXcrm+5MgXrd0fF2PuGmrVvcTGf2eOLwsSsMcqoLPdwexoyH5IQHScx4tHOPEWnm8QG0raxl16lMSsdc/qlfyZ81Vf7X2tKVWtoOOZRs9iVYpyQ9EDvt59NrzVwVqzOQVwXDOMTiK9t1QSunX2/0ZZUtnC0AXXwla5wKw3SmyzzwnNMaEh5W2LI4O/ffrAkpD4Yw4yE54UETMx6DnBqRBbw4CLfZVdHDqyhKhqIIFEWIzhmkahZlp7JKB3LumzlkiOXTCPWI4O9jfFJeVQRhvOw170Mloip65EzL/b1vtsw04pyBp1S0wpbFWdfGC/Sgmcfb4Gc8JCc8iGLGw47nZhOSZhVLWlXhVA8W8LUFPuMhO+FBFjMe18YLDMhUrlriqipP1YI0q0RiwoMwZjwqnBqQlbidurTzSiEj9BxpPqq8Y0BdBrgaMkLPkcajnGWWvCrLyuEi9BxpPHZC+I/Slz/K3eGi9BxpOtq5nb60c3u4KD1Hmo4lAHfTl24uhovSc6TpaOBB+jLIDeGi9BxpOMqcWgKrlMuhovQcaTgGeAaFmcEDoSL1HGk2FgW8gMIs4MmhIvUcaTb6uI/C9PFoqEg9R5qNHn7UFOZRc0+oSD1Hmo1+7qYw3dwfKlLPkWZjBrdQmBaeESpSz5FmY4gHKcwgD4WK1HOk2Ui5TGHKnIaK1HNk3hep3zrNRsaWxIqzWnJI/dZpNpjKcCGOJb0+iSFIjiH1HJn3Rbi3TvPX+jc3GYDUYkS2t87Ef4n/dsF/if8S/yX+S/xnlucScOWOepccCQ2Hb4wY3M7q3S5lDXs550MOG7olXt5hQmx/AAvbU++v+1wCc9mS3jSxcKpwNFUYz4A9dLSGW+ycAkWz9oQVGyBDgOoRTTlPoz+E8HLbEw7YAAGaK8lX6rZCWVvCEhvISKgUltLGTDKay5HRipGRUCruzuYP24Y37e1xMzkvtyt18TBYIcBzldZWgo+Xey434hwW3xwWj5fcSijm5Z7prXMYEKCzkmqlLhv+mB6MEEBacmHHFKO9HBmlGBmF5g/PMAHYHnOXlxEzi1vHQJV9kPS7mxsO20iVWOstxw8ABWezweegE56yAanOFSi/LDvWqAcEeKXy2lLdv/pAQgwd1h1PE1uMx/MBQM+qhvlNMIaRI/3FyPAVy4wLlwIA7JCwysuCmcXZFPUBQKo1emXLkpRC2fDMQKxpoMjcQTDqrXcYGFbID0JWlbAHFTy+uj03c9DxLvNh0TpeKX1EumJKU3IfAOxFKROMYeRIfzEybJ7Y+BBcK4h4O2Zxlf333iOADCIynUWhHGvCAnYpZSz4rEM03BQ3IgRH0excQRtO3ag7YwBF5jImGMPIkdGNkRGe2KhwK8CcbhsABvi2RMlAfbLZYt7hoysNv9Eori2HnVUv2zylQshZKBAsdBCusB2OiHCMuDMS/obfKKsLvyJCpcNZh8NQKe9MvF4fMMC8oOwO5ugNrKaUO0wkfauOkQfZQsFf2/AL2bpiN0+pdOgoGvCtt9RORD5fplJBt018edj4ZsPhsFje3Vgle5B9oSrhUzZpX8PhsN0i9qiyK4w0lbcAjLjAMsGYco6shN8TBgFItYZ6GWf6a75qJuflnkjYZQNQah6PkFU2ZurtmJ++0zqXJk1KU3kVGO48t7J/ZNECB4gYRUGgEqFTmyciwhNzLJniFLoAZPQ2J6ygjdB5/o/55fOlOaasCStsIGO4dfL5Mi6UY0ov1AEAAaTzKJK6oc9EOzGRHCkdI0POkZX9+tPsbU5YSrsl3s9mJlchapgTaDe/rKLoEFgxnJhKGL5cD8Qzck8TVGSdI0i3sNjW0V/7VTDiW3pq/VSe7f6kgnxJhdC7YMQA86I/SV8o6TcEuFhZtaRIGsEtAB/ABGMiOVI+RoacIyu7MWJi00yuGGkQwIiz9Ag5LoRhdgAJlZxR7LtFD4Kjx30LY98DgLziIwqA2BHtD23ivrcL4F96LWERER86RSQ5eDIyO/AYU/mjg0e2393gPmJ7YgPBhEpKBvtesb0VB8ybMeOeE0DWOYQgDVol+UpciFuzAxhWk3XcCbt45rNl7XMCsJ0lkWZHTwYvnm+/PvxZxCo68XKb4w34gFgXedQEYyI5Uj5Ghp0jzeky8m4BKCLNyLnVHTuhB5BqgU0UkEvm3gXQs0o7P+lR48rbi1XtDtcPAighekSkx5r5X8cATbYvWmRrh0igbObenMB9+1V6vjSl+Q5U2weg4GKamNwXrgNge8ynvTYxMrl4aR92SCiprF2KuNVKewstlChE6zfVPpGJ5Ej5GBlKjiR6b1jJnN4NzwnskLCaHHHr6K/+KoASskdUeimm84mVpmOOHsAo8ygxMM9Y0dZUQ9TrpdUZfaIkX2olmmq6gEwyX14f80L9S8WbCXu5Ry4HQMHZdIQJxjBypM8YGUqOzB+4PeZ+KkWpAwCeHGl7zDovLUbNAoorxiBs97tkwYC0ZqQpzPdRArEV5BGSJ2Z8j8AHoJSQ7UYo9V4AJPl/1Z80xRhGjvQZI0PJkfkDDwN4jPMwN799R/RUPjUeFauMecr6MIfDgIM34Igt9NtgZlOY75JLBgGMuJzOFgpfhxQ2cdeclKCM8Hx5dwHEuqiiEaYYw8iRPmNk0DmS+m1cQSo/xGsNo/dfeTXAcNNMaiUWNJ7YVMYcV8KCDRDBpjDfNwxmBF2prGF2AAXF6QiTjGHkSJ8xMuAcSfOYZeiNKHAEf5KytnhjPmDXg0Op5L3TBOqWjxk0LsTwaRL7eZpmDCNH+oyRQeTIfIEPNLt0L7S8f+m55Kd3aXyPwDsKBpXw0VcD4ItmcD8stBcudhBc13zmH0lEFFPEyvr8Zff9VLi4QhFBUiE6+moApJrmR5hoDCNHimJkaD5AXoCX+550xLLPJT+fEqsxd2DZ9WCQjXMDwAdrQbyLhtDAeEpYZfkS68pGGbpCvjUAKRbF52uqMYwc6TNGBpQj8wConSLbzc9QCVvwdPqJ9d2vpdiU3AGw8aDYE0bu3/L7RgSXRwkgr5gQPB735QAYYL7kfCNMNYaRI33GyGByZJ7ADc8O4IioX5tMUzAh7jN1w3MC22vSeKr9jIn/fxkdFCmmSqjBS1e6W5nZqgOahXLc7+8+6uBwZo+ZOCqA6da/hWHkSJ8x0k+OzDuIeC8AsL2msrzmeCX7YoQnhrn4XM97TiDX/HHEOsRjQuP1V9CHRWVjkwnrbcQxARQ7YyDMRbUR4Ym5S/nD5xsxfHkfgKwLBJFLbDJhiw0SAREDNfUC6FcprGRckayjWMw5AC14FC0UO+gLByDAW5X0i5X2HmyZiAqegAnGMHKkzxjpK0cG6RPRuE1eONiRd+aI2iYdi96BwSOR3vK3AGkHE8Uihj/WB+D59uvbmD12ngjH7E0AGEANNoerKchBIJFww3OSD4WXJhbul7QxO/A/5lesNWTivZpej4tlIjlSPkYGlCN92HJ8+dy2nF6+0Xt4/Z9zb/r6CPz4LQ760TMNq6BIg/CRzQ46elbJv1UEbX7SGYsY9wqAeGDvWx2iWg8q1kV72v8RNNxfh6OhOcGIJP9XnS+dnPxWXnJsZ/NMLyaSI+VjZLg58pk/fwjr+EQdhR8Tk2NiZggSNjvhpQ5ry7qYVslEKoTGUrCDpHhGse3mwflGEJYsuCttC0xadMcNxkFCHY5M8Sp9kp5VCvF41LdqQ7XPKXmMtpuPW/5u/70T/aP2U+P9rYRPpKZgs5N68yGj2PfbMi4UE3mYNRkFxWnTq38LE8mR8jEy3By5mdKbTyz2nCmcuIpz8c2X2l9YTan9YKXdRWYinpinrA9b05ocvKEKuwFWHpUxrNLeYgs6xcpuT2W3n5Xtahy9yxUcASqFskFsTWsquxMUU2v52+v3cjfUfmqov3Qd/u5rupGyrqCn3c+8UKZnB3UmkiPlY2SwOdLvq/dYoHnstuaRI33EyGjlyAJNpnrrTPyX+C/xX+K/xH+J/xL/Jf5L/Jf4L/Ff4r/Ef4n/Ev8l/kv8l/gv8V/iv8R/if8S/yX+S/yX+C/xX+K/xH+J/xL/Jf5L/Jf4L/Ff4r/Ef4n/Ev8l/kv8l/gv8V/iv8R/if8S/yX+S/yX+C/xX+K/xH+J/xL/Jf5L/Jf4L/Ff4r/Ef4n/Ev8l/kv8R/o2lVg6uuL+fWlc38nuy20YmKCgavyZl/Sty2NFo1cV1aeFlzYbX3gw1bPbPDBCYXUlL/PJnlv4vaq0PjVsWktaesuRhGCNqbU72nuF4up7/H6d9er3+P1mTXNJS285kgqcaG77SqC8upInobNevZInYdR0l7T0liNpwBpSa45dyO0BDwusB5QyVk5lpct/W+/NsRv5/ZHoVYX1qVHTXNLSXK9SgCfrCHEPFiwOWFl1be/TEeaebLi9+j6vTXV9atT0lrR016sE4GUCwLEAVlp9dQB4meH2qvr6VM00nSMVmLT0liNjv/KVAPi2rLh6nwCupBxmr6qwT42a3pKW7no19jva4j6A93ZtqnNt7w3Atw6zV1XYp2ZNb0lLd70a910SgLfFyqu3BeCSQuxVJfapWdNb0tJdr8Z9PxPA5avP5QP4mSH2qhL71KzpLWnprlfjvkYApahxL4nYkcHVJQpxSgAatdWrJQCNZk1vSUt3vRr3AUAWNSOfuYb033WyBFCTY7ITaSmQFiAzznTH+XV/G1kAUFOvMm9k/fi4R1ldTl6ySxT6VMmML0f2NOhjpRP+5kryAgNISKy0dNerFIAjwwC4U37WKcUxhEE0av8oMgjbGbxL54URAADYyGrr+ncxXBwZXpy4PZnkFeJx2aXKuxo7ethnZoG7ZG9YskDYfapsxpcjuxp14/nC/PUMFnfudsaCg7ZpgWzv5/7rkFBpqapXeQA1kYuTyQxMXw83RNTIlOSO2sTuk5w6uSHhdUBYrl2ePXkzQZ8HcJVL6wcuH5chb537VsecA8A92636i3GLKpJW90NvxDtIgGf9zQyaAdLpeowAAAHe8jNx6vLf37BFKiRTtipLGX5AuBaA0pKqul4jU5M6ufNNOwduIXKW1TgGuK9KOV8R3dcUSxx/sn4g6ykDbCbbZP2Uu/ZxBg/J4H3/j/YSjL3AxyeUwm1WIJlZ7ZCEEYrdQB8TL3Stl0Xq4yaUbztYuxMAXGRlZkHf1rpmPUGhBwJUJ/PKvXZ4vFvak6tJIQIksTGTQyrVbkvXuWEjUzkVBxJUexBms1PZlRsgN9RAD/o9121IAOd8hMFBxNe/anCD0VamPJy0aA1I7GPl2i3pyquUziXhMe4YsckBkjAY7roiFvUqH/lYzlyt0yvxkQjGP8A5oQToUYoBthPc5cGAX19oxvmoPaOI9V0R1MsiFZITtlX5eHUGCNCZGY+aCa2YEhSeAwBArOdakQGSmwEACPAHQwDmBhnppzp5eJLLb8JmUsdFZevH0XmfjLX8J8wgYtAvzzQbr84EIr4Mi3rVUT84hlFF0tqdxfSe7tRg7dtAnyGlp6OA8+rFrkZwV0g557VYc20wlkRbL4tMSJ6vrwDz/atxviNc/rFptyr35s1bIXJ/L8MAC03Ng9INGRHmahRxn8JwglEPFmjmSwUPhrdNrKuR74NmfVMoF03vauP7kbaSnL4JAT4SYEbDk1x/EznF9RK3uinjbYVcdxukUtQHhNFuWZucgLuiOJB04AvZEVrNGPDrC76prBcQA+OIsFdjG1Ukrd1ZgAgBOv02OHy8Ohs6t5I+beLrTMjwZ3u9LGohmXarSnHa5kErpviaYixJA+fcu9wmrQNfHjHXIGrnZ+Nw7l1qEzMJn4n8amO3GNAuwI4aaXOT06XJLzajsZRDQy6zVGOb3E9aZwtLeGgpYVok6XUK/zAUq3QBWeZauFulhRyV4TOhcb0sMiG5uTEP3wUaeb2LkGS6rUq4OPOgi2uKwS6IMwPMkZkAa2YAnVuR99/Sq5KXJyZBK3t8HJ1bGW1hmXGYY45V7japMZdZqrGNKpIWQRaFlvPI5FeZ0VjUx0R3V+nkwLGH9bIIhWSnHSRkq5oTrQFUhO0TS2POiSSM/5nwmUDF2ZFYSzXOUULSojvWIWuXgaXTSs7MUi+LVEim3armRbNGxx6wDwo+ANNM8+x8UwhXZGo8NXLzXwE+F+hAjPTJyL1GLOAXz/mkYJppfCC70YA4akpSQ9Kir1FjcSZSIZl2q5oXnXY0vgyrqJv+1OTWIdZDZgjwg/Vx6SueaZyRNvIZIxYqe5E68gXxxwr9RBJ59SHxFnbYwZm0pDxP5xc8LInVl4qT/ZGoaB/u4NikxtUVkmlTp6nRzmebx/k3cCrGS3slxNqytEbezRcQtkMGMizXNYvM3TIJOM4ruJE2XpUNsFlTNePch7Gbi04PdCGcj9oziCszYOBHy12LjMgAQCKvFDPsVgAJCQTEtKKEpOXB/bs+T2DrKjmXRSokS1r2QqU58BN5VE5D3EElCewCn68ZN8DKMQJYfVdKtKjT1EBsI6Dfc+cNATDWwpNefgWITQLwpICHw3nhtiEAcBVJOXOphicduwIyZjGtqCJpCf2Ue/nuGyZ/FV50au1z4i7Z68flsoiFZC+BAIGA1KJ7o1FaJY/cnBnw2BgePG/i+hgA7IC/wsVawjkvW+1oBCwgYWyVF0iKDNa+BABWJuW/5sYa75SxIQgAsVYupQEDzl9x8n4LgI/KmUu1W/IhC8VG1mZaUUXSEu9DPgmAuwYAbFJSOZc/UNRCsphHpRVkdG5lDjzeoD+aa+6XhoAUwokIJOV8SeAHSBznTyCOc84DSRCYBi5FACnbvHlACuXcOKMXZXP/NDGOWr5Xcydcdqlyzjk3tfY4VkXSqiH4qrynenAAd9USuxGHyjktaiFZ3KuvjjK9WYga/1sE1NOrphtlJK0POsQsyFsXu4igLy3SFcy5LWIhWdir7NG5sy/p7Z9fFfXqLvhvF/yX+K+2OM8DXJTpzFa+tcegJBLpyn1oRz58ZC3zRYQBftRI0NAt2LY88V3VauwBiLCHjFO0MI5zf0bSnr2XkZJu+yPcMb6C9AgGSJdh4mtr2zJfhOfvZ0gUfwfcC3bs6IePrOWYEe6B7uxcnge4KNOZrYLWHpUncryJLzMBADr76rjGgYZuwbaQjZuAivs8+UYzPnaNHURkENbFKerU9g0kHjEBAGJXJ1L4HTjeN0oucF8D18QmkabEsVEiTck3xJ3NckygybiTPTvzFcl4Uosk7QVJUDZA+zLikz+ythkTLFeMpaCAll/AMVuIFSDPA1yU68xWQWuPihPZbwhQndEjcIL9xdZYgH7PvdCsbohgr2roFmxrWdS3RPWpAcRITYtDfFjGTpvBl7YLkax5AQB3rSQ9/riBzA6xayprxw8TR63mCr8D+w2kdopyQTJxvQkY8OsLccG0TKPx/+opMYFnmvKIjRJH3i3dEFE2yymBJuM7agQqnpwoCcoF6GJNkyBiEOHZrvIFtIIFTEw8D3BRrjNbBa09Kk7EnxGxoRb+FuKhF1ZvCIBRoIlbsF0R3dEGY0mVnOdrjBRylDXjfOxGG7CHStLr9POQ5vwlznn+HhPaXZPiHnX92EErltDXw+R8VUeHdiutf+FXqtMzTXmlRIk0JdsQUTYL4bYZZq8GmozfQOrKlFRGpo3DhQAbVocKk6BMgJ61DfocV5XZJ5ZB8STdAeDhKKiXFSzgHLp1GqmcqaCJD3BRvjNbBa09BqHXx23UJZHtVQ3dgu3jRrtAC8LoRRUZ/mxmp8dwbKLC3QPUAg9Cj7rbCJ4OawAgKv/vcxMLCNPUfb88OpZXSpRIU5INEWYzNQhCC7YHwRh0LxlEmARlmnfICPNXMzg3QOAY8ZcU9Kgrv4CJCuf8tAkKOrOVae1RPhEmf8byMSKsmTGhgRuGOe1ozMJsEM9RoWCnxzozlraSr70prH7t4pIg9Kh7pJjBgEH9C79SnZ5pyisleqUp+XglzGYh3Daj26vyLdiSC/Jxi5OguHkuxKpwVceIEnKFknpZfgHn1K0zXrs4knxvZjLN/cgnwngOEk6QteNEo9HZZ72AGzW5O4fpllOJx6CD15JQkRVTfMcIJPYB0Od426WSFHepdnFNMeDXz8SZ2jz/GfVKiRJpSi5eibOZSihpwXZuTH6zsknwk75kwZX35O9idLPucSPMVycQyX4HZBcweZHvzFamtUelifAqpaNUs8VGzaoOHIP873Ica/Qu0ExZehcHAPBZFnOR7HdA5r94ONzE55USJdKUXLwSZzPluDimOrl+4RHAI/5d4JEEpZqXu3MSiN3Bo1GgxEo555zLfgdkFzB5ke/MVqa1R6WJ8EBSNHNhepVpKQdtIE7GGTNjt5hZ6zUDrB+dVIgqciJJum8C90o7B2BbJKU96l4VsBZu6vNKiRJpSi5eibOZ0rwF/JKtG2RxEpRs3sgjnwKA2+ES2e+A7AImxiusCE970g4coLGC/HLO2M6k02IH/wo4qhVckU5To7OrsZi78oPRCPM1CIJSjrtVuqVCwOTnlRIl0pRUvPLIZipzyQlu8uC/vkxxEpRTuN4JxALo75d2afTJfgdkFzB5ke/MVqa1R/lEZPKOxhEbMe8LKCHXUHfHD3WqB8grr1Z8rQfXFSnn3LvU2QgviKCsR90qpTONcNUr5dz8ckaczZTm7QKXLE6Cck4LsBLVTHe2adungPRTrUrqZbkFTFPEB7go35mtTGuPihJh7yeVZa7BCNk3SrfkF/8NV23YBnJbsHSnjUBOsUZJeqTppedRdsnCc4BPw7my7wDnz7wNfo6/ncFNf14pUSJNycQrcTZTmvCZxKYIhUlQeqpnga7EJpWXtFsK6mWZBUxXNhcIyArZWBs4KsojN8fZndm+gQRXepBzuZ7d2qOSRAo3W3EvNs9dEz//7Ze2unj5gWmE+9OiybvGgIdjTCTsFmyr8+2N8Jc44SMCqT5tCQzn/EgwxRR+gMRJy2yl7PROHvhnXXlk/oZp4MMQObG/A2QitVjepoDnJs8fhSmmmOI9mPR+4l/0SokSaUqmIcJspihtSVUqZoBCohphEpRqnqMjG3Jib8ftl142YKCgXmYvYLpy8iBDrjPb047G82e39qgkkSvF9K34yGeukXkYmf24EnYLtkdKz/1cXDS9gE+NX6mYDDu9Tj8PiE0K8KSAGdZH5MTuUZdMZNT+QVDR0DTnSFMHwa38kGd3yhASKdE7Tf1S76ApzmYKIdeCbeSpUEeFESZBR58Jm1fzqp3XNo9zP8baR8Pqu8oX0AoWME15dZTpZTqzvdm50JDZ2qOiRLpI/BhbqRtijQDEik/O15hIyC3Y3ubPo2bzpTEcS2h3TdIyOzWZ9AKoW2lrVwEAVi75MXAiJ2aPumQi0gFrhDYgPH/TVKChSyIleqapyRJBU5zNckmgyZjYTvDOeA1hEnRkYo/mjVdlApDExkzC2AXgqChXUEArWMBkIuNwSq4z28jd4ozWHpUmEkCCmYk8Lr/5pcXVpZ+CQ6706scLAITLBGOZyUYgKecHueaXNjOVE6NHXTrJYF6msZTw+LMlUqJXmpILmhfxfl0+0S/NJQEn40OmtxMUJkFHJvZqXpnyQGKBCQB2QFJRZrtEcQEtDqEk4jYCACVWXpUALK2tXi0BWDoeCamnRSlRPk1JBM3QKquRO70aCDnZZ9Ui32fbad7cP01UXkAH3asU4E4BdZ5ZrGna6tXLBzDNrOktaemuV+O++wbUebbmVgyxV5XYp2ZNb0lLd70a9x0jUecZcDwmEmavqrBPzZrekpbuejXu2wK5zUCVZxV11p5D7NX3qcI+NWt6S1q669W4zz4EoMozNbxcuL2qwD41a3pLWrrr1dhvtyuo8ex3r7DbsHtVdX1q1vSWtLTXq7GfXSuZpcIzij9rbcSGVv9c1Ksq61OzprekpbteJQD2JMksKK9mXbXOenXWVdtYxF6TIpOW5nIkBbDXtILqrBDyreOfr6C8PjVrekta2utVGmB3u5zSbiCzltttBHpVbX1q1vSWtLTXq7FFlmus3fPBVpy2dHSU+vjCTXAOS09b8WB7jkSv3nzEejVCfXrze7Y2t2Xapbekpb1ejTWUXpvYhFjTMYheVTkV50jdJS2jzZFmI+XtEQpT5jRUtJYj8/+2D0JG6jnSbAzxIIUZ5KG8iD9iOnYNeEeEwrTwjFCReo40G/28E0Jhurk/VKSeI83GLgAvSijMo+aeUJF6jjQbo9xHYfp4NFSkniPNxqKAF1CYBTw5VKSeI83GAM+gMDN4IFSkniPNRplTCpNyOVSkniPNhm3gQfoyyA02VKSeIw3HEoC76Us3F8NF6jnScOwMcDt9aef2cFF6jjQd3bwEoS9/lLvDRek50nSUs4y+ZFk5XJSeI02HrfIAdRngqg0XpedI47Ezwu3UpZ1XChml50jjMZWr1KXKU0NG6DnSfNg02z6hLRVObcgIPUcakAV8bbTl2nhB2Ag9RxqQZt41oS3juTlsdJ4jTYhNeZCyDHJqw0bnOdKI9HA7ZWnnntDReY40Ii3cQFkauCV0ZJ4jzYit8s+mKz+bqzZ0ZJ4jDclMHk9XxvPM8JF5jjQk9lQIt1CVFp5rw0flOdKY9HE/Vennvgig8hxpTMopt9CUFk7LEUDkOdKc2D4u0pQi99kIIPIcaVDKKU+lKFM5LUcBkedIg2Knc5WiVHm6jQIaz5FGxQ7xYoSeLMNDNhJoPEealW5OK9SkknJ3NJB4jjQsdhzvklCT5XmcjQYKz5HGpZJyMy1p5rQSERSeI42LnclphZJUUp5pI4LAc6SBsf1cpCRF7rdRQeA50sRU5vJ0OjKd51Yig75zpJGx3Vk2lYpMzbK/aSODvHOkobF9nFZoSCXlPhsd5J0jTY3t52qZgpSr3G8jhLpzpLkpL8tFClLkZctRQtw50uDYHYAG3gWhH2fHDadjo4S2c6TRsTsCKe+cUI9T5/TSbaTQdo40O3Yg450DxdhU2+JkE25H7fF/ONbQMP/iOQ90Lt/lWRm2vXM2YKOFtHOk6bF/M+NTV4mt9c1OKOz1UIzhk0KvvXypb2TSTp2zv2kjRmE5UkEpMn7lSB2L4uXs1GGzHd0jdQRMeiiGiEesjj9mKfm4xLTj/Z/eEVq92NMuXvFNTLr6c3cy4THq2dW8RI3KcqRiUmQcy5EmyA6kvAQoq+K2f/WTHpYu+jh2UztCr5f33Cdd/TdyMt4xarnI6YCNHKXlSPWkyPBzpLJSpK5ypBmyl97A1YoanGDEe9JzP57/aR0RqBt97pO+lIvhjlErVW64dBs9isuRKkmREcmRSkqR+sqRpsiezrKcTlVClNvLTby8jkjUy7uJvQgincmOUaemvOzp2AhSXY5UR4qMSo5UVorUUo40R7bcz9l0Bfguk664IyJ1xZO+i4C5jlGnZ9xftlGkvBypihQZnRypohSpqxxpkqzty3gJUMl55zLpmKXkqDgmKWXSuYim/Q11jFpZAnDWZ20kqS9HqiFFhqA6UkEpUlc50jDZ7rmcNue6DzrdIwspTnvSgYSMdIzanPLcv2kjSoU5UgUpMgTVkepJkbrKkcbJVvqZl6/ktumme0YhxYudNMmDcY5RK8sz91dsVCkxRyogRYagOlI5KVJTOdJEWTsz5XSZHKeFmPBmmGPUZVJOZ1obWYrMkTmfIkNQHamcFKmnHGmobGUcc3WqphjkGHVqlXlcxUaYKnOkFm6bHR3eFDBG1VKONFbWdg8xLwFa9MUE+7OlyDzUbW2UqTNHaoJyUqSGcqTRsnZ6ytzfQhVa+pnT6dZGm0pzpHHq6NBQjjRdttyXMo//2RThZ49nTvvKNurUmiONk3ZypBHIhTfmMje0D9KCwfYG5rk1b0WeanOkYdJMjjRk1tqZVWYef20Vlckh1RXUK203mkPRKtc2npmrNX8wnQMUnCNNkl5ypEGztqUnZc6q7QPKUk0u4qW4gtCygfYqM6c9LdbmBjXnSIWxlbQWVKvzbGmNKp3kSMNmrW1ekDJz9kfbuwfVoqBCO5az8tpF3lJxXWZKY9TB7vY/mjFzuqDZWpsrlJ0jVSXPRLuBgDq5KdvdZmNKGznSyFlrp65UzZiZ0xkL+h51d8tguawAtpL2Ott5BjjOQ1WFDAYzRi2XB1u6H3XfghkpM3NWXanmK8FziNpzpFLYCVuKGyvyOVSiHDNnDDgEUA9tLc11leLGqFzLI82dtbbc3V5s4NyooMshrbdTNEhsJW0BRjQyB6WG4MQRaHZC3QUHASulojVG5dyqhmJ7d9lam1t0kSMVYJx/NXwF3MchhMrGqNzJI01Drv4tLQ1M7uvpnzGUplmWUxwnNHG1aEfXLqq2VLARB2aRZivprGblx3Hun0MomKrQHP6trZM+wfkkCGGSJFKTenzt/4l70Li1XEzOJyYd5yOqjKIgx6hcgSxL06EZ/T19kwfKtqZyjvHkyAC8JTuNjuD4h5Z7FxIIk6Cpa9dySOs0o1hHhjFG5UIeacDUlufG+quRG+CoYJ5c0+yEZw1+4A6FYltJR8A2yrl/DhrHDXCYI13jOKHlUnzH/fxPnIhJ0PSxGcMz0Rqj2tyq3KSPHJlLbCXt/ibGWd4/Ub5/2r6SPy23n5rjgjIgROa8Tu6xB0q1XW6+81oGBucbCcggdY6OizOKVyKAelTRKzEQwM/Sg0Y1hsIYo3Ibj4z/Hv0kNiL3KCJLo6JObto22FxuVsENkC1MkWs5Zk7XceXxVWqv8WdE5iMp3tLtaCLXfIZWTnKKn2U+WpUxFNgY9ZtxjzeD7KM2P7wL2UcVKFBe2vratXRsPiHzSDS+UMInzs9c+zgzas4nQQkBBJnz8TmkO5+NS1GKyX9AX4kTUYbNMYJnghuj1nHvdPp9VG7hkURA8xCXcrFoq7nC495MgraClXxejQVajpX626kgqeCfTbOVtM8WmSdXrWmiSiyKpt35JCYif1JK6WCMyqCgjTOj4d3skg3ao3+CvDyH8RrrOPJ4NRZyO1olWZmURmmhildjETQ7hU57QIYo8ABqNg+uthO2T2yn8RWwj42g4MaoPd+qwD0PhOyj9jj4L7KPyiiy9U1upCBTfsvb2UhhluzO3x0nYwXsIxbHQqFoNuWUPEa94h1WOXgcuo/a2Jg2ZB+VScFO2GnwAi/F5WuFzzcZ0vAqcyA1W99kZD5SlZ2wKcdK3ZkY3BCZh6rSrp5/NuI2T53cjG2iWfr7PQmaOjalNDBGZRKZa2IDjXsUkU5NHOB3/gT5JOjRCmLMCRP0B/AAakZp46JclicVNDoYozIpaC+c12TmtAa8Fj1zO+P8q+ZknCWBcT/S1fPvuJ9Kz6h4jHrP+Pf+mnYflUlEG2+qkk+cf1zTw+YebLL2tWutsblrIYWejJjtLAvTZcFB/WNUhoWD5t3swi1STSWaEKgPQIwJ00S7cIPIuzCPaRI0pZgOxqhMItL8QuQf0zSPmVK+sl+vaXM5aaR5DjTanT9BXp5D1/5h0Kl0jHrJGthHZWCwlXTVceXxqrm8w+52BdpRGdJggH1brFkjQvTigoUOxqgMItLn5RPnp69d03LMdGyH81oIWitJ3yQvc4wjZbKRSZJEf0bm2klPUDmVjlEbm9pEu4/K2KD9J875CtiPiRs/VZkkUT5ZvcPeydvRVsrr5B5s9WvfTtCpdIzawaAGje6jMopIo2NcDlsTo+BU48Q+CuecP658RwpNKzjVtB3OazKPbsdbWsR/nmhiC43/P6XUPUZlaij8/5Y4zotzijVNG18m4XwSFGoS9ACCyA2wd2zaUXH+bjfyDBmOTSmFjlHtafdRmUKCFjmkja8tn67aTtNA3r7Lo9bmUWqD4XGxVD1G7fFmNc0+KtPCo5+NH8RWpb/NHuvFm+Sc74UHShUz8F4Vcr6RsegnH9BhSxz/0PAAalrxibrHqMwDan8ERx2MUZkVNO1B3w5VeeVb1vz4B0cVlBfweYPhcbEUPUbtsQr6fVQmGFWPUd+fdnsKTqj9ERx1MEZlglF2fzJuqHqMWu5LM2mrM8l5lN2fSf1nF/y3GwHp4hnGFcLTybM2pS66eIZxpEsrz4RbV2PUuEAnz9qUbGnm7CLoa4waC2jlmXDraowaf+nmjI3oa4waA2jm7CLoa4wac+nmLPhobIxq/nRzxkb0NUaNt7RzZrE0NkY1fro5Cz4aG6PGWfo5W3M6G6OaOm2dLR6NjVEpjP1GLzIaZ8BRZ2NUU6etM3ClszFqHKWpM8WotzGqQdFfioxEjtTZGDU+0Hh1dOh/jGrqNHWmGPU2RiVB2h+j6hFfWJ36H6PSIM33KqHQ/hi1cAbzU52J/xL/Jf5L/Jf4L/Ff4r/Ef4n/Ev8l/kv8l/gv8V/iv8R/if8S/yX+S/wXV0V69Y9He/W6h6h/IeSF1BS4ouI1LcT/q4uPB+JPjiRC6lul/tsdZN5GyP+X7J/bn/k2sYnE/M6lD3EoR9Kvq54FDdSsq87pz3zLe3naOyT2dy5doK4cSQKuaRYA3K6B6SG1H9ZQu9hy5XTR8vFi5WMF1+M7vM2nfVkAMOufq/x/9wxW+OeaQF85Mv7b7QoA8MDaj9usnF6pwuuzPtD2IwCssFuVf+abddV6QGA5MvZbDgCOunl7pYqvvwMAy4X6me+2Dd/dn53hYz/fuPIbZWu7l7f2e/k5WK/s/J7UuztbAJj1z7WAwnJkzLfnWQBe0JUqv44IYNaeQ/zMdz833q7mVumnzuH6h/dj4z0ArLBbHSCxHBnvHQzAy/qs6vdZXxaAmw/vM9+DP9TzqXO8LgwAltMBGsuRsd6KAD7tlWqgPi2AFUP7zDf4qXO+rhvArD1rAI3lyFhvGoCvpgNfDcC0sD7zne0/zH3/8GwB3LwGEFmOjPOWBnChOnChAJYO6zPfu/vUCqh3B2BFDSCyHBnnAcDb0YG3AwBhfeZ7UirwpABM0wAiy5Fx35VqocKyNIDzU4HzA7C0BhBZjqR7APDKVOCVAYAGEFmOpH2fWgmlCUSWIwtEENitM/FfUv/ZBf/VPjZhNOwZxifCoiE05xqxDa8wvnMwLF7a3lzzzDMQ8wxvukd2vQL4RIdR5axbr8JRRAsGwZizTwazzYkXdpMbkGrjwURXWOEsphoxJQc7igw+7dB9ydxiotC6ZzxWLYCH0JybeMW3a2IJi4LjPDEGABCg0srEqGFLKpWh+W5ddezynIoNEOB9tfVRSu+jely3EZPlxvfh3miiJTvOmR20fu1Vc3+/dzhHh/Z/+6CcT8Ym9EM840sTOaNBlwj73MSeHsqUeOxlTVFKs43oZfHCRHtRIybB2uXVrlnBuHFhEECXgkj1n5uIX4ABAjzjqX5cLxiXPRqzqOnmiWxRY6lky3lzgw6unIm3DwAA9G5l2pupSk1IWHtstkNwSGR9ro374t+MIc+smGVy4+XepnTsCpRxZTXzxkiTFbrexCHPHoNF/vdEh6CrGYvWDESDn/N/TP1Ea4aiihKqEdtucOgKPPrXM5oPg8XbDOb+ZcWir/yczZB3ACxFXFwvOPT++0woIWMYxZN7m86hU1DKv+uZN+6n8JQuhgNvGCgvJer6uNTZfopDQPcUeyIva0Y0IYENxV+KQff0Zk5NJ06ojWMpmrwYSVKh66Wp7t75fmD7tgqzGXkNdH30GmNPhiYnbDF+B4bF/KBpzTKvVdl8DLr37j/sPXW4KGu5j9Uh3AmLmq6rbdrSdQeeBWkWKkXZy4ZgL2WK8ixnUpa6gN6t+W4boOuX3N5WQc9QMg6UU5Auuf1ilJoOul6A4zgXdF+K5TB+Hyb5RokqtoBEB5nfPb3hbyp8cSDNSnEFHEa6HPrORmW/7S3Krr5R84E0J4lnWcevfMyZs50rfQPV3AEmDQbv1fGfHxI5GTr/8U3Or0IqTgPKOC53SIH+15wHMG+iMStsRRLdiXMf6J4oHQUEeK2GPqnXxufiX4sBiQ6iwNL+Lhc5iliHPlDrbXQvt0qSckq0gPZOXgSOSMoUwGQshz5Q1x+BfoIJAAK8z8fo6AG3BUTXU/a8h99dcwvXpzpwlBCyyQSBC62mTenT9gCASaft+Eom14vwjSBCtJx8M3C5C6WOAVD2Y4NpVooLYH/phT7GbgO94gspm3+JXuXLoixXvq+XnglgQbaYFeUvJfu7oqKWe2BjPN3lzOud2YYDAPO9dfChS9y/asJrHkI8dcsbtJmknB0rZ7b6AMBNzG3I0WoX9gratP3ST3JAsPezevT9R0drfaoMhQvnAiQ64OY3MyTFmA8ScbfECtB564Rkct2JY40vyHZ5MPq81kXzMUD/7nxPU4ZREzKwysFRmkZQWMHT9Xn76Zy5UM+ljK5PSDg3uJKSctoei5pWFUg+6IjuS9EJJ8KijNJz9BpzdzFdn8xc/1WrwKKskgwZJ1ay5mXUn7tJXyg1KD584W0wvB+HgSfNbfQMDf348fP+HixOWL5FfTmU6Y7INHtSL1BhwAmVXyXoVbLz/dQ58gsFonLSY+smPcQhK+aUfk480WFUH0NwX1z7SbKpeD6hVbfgfgPmlIwAOjcVQa9IsYR3qaFNNhmo6zZsJyR6bdwpPAlAOQVV90bGwi90zZI8Wm6DipTpjsj2X7GkJ8MTntY9N4hXw5JSzSuuewdfrOpwPP03WiTWrXoMvqhufegp20dR3INjaVdKy1NysOOe3xcCAEhGu/FDwL1VL/ZSNQEsyfvfqKgh7v0VmLG3UVJGz/LeMD2AALzigpdMbKefk4gD7za63L+p+jnVAyRayMQQ5dz6gO4xuNA1T9vjlXQYlz0Rg8UJlR2magH0707EoMv9o2tCBlY5uG4s5oeWBnoVdCQGM+v6NaOXxa7JyQSBj8EoPaXpk/njX4YBAESM+rOmFmdcKAUY4aovLahiGc8yJfqPBV29LGk58NjvhVYA+kQmCgneHxVV/KJzwiOQ6vB/w1/ytRmxIFsiC/nrLXd07N9Ar7i/CP9daQinHPvlXwfuTTo4AuNXZilD9/4bR+RBHokhrgeyVw/hldTeiaTou4NvSKcFCKBzXqbq4irvhLzWMzVjGzXCiZ2JOndVrGmPHecgd/XRcbLW+vztxYzWh812qMi0xADvUi9SZsRifmhoIMozm09kvjihtsG0PU5I2lBEIq5PvZYzuv7aD0907HAWM3U9e/0NrOKBsbQrpeUZ6c7PQQBaduaXo5Z69SdnFM+0vOePhTDwTv/biBr+5q/h5zmUPysZKeeXUalu+gkwW4Gij7bs7YZhDLxzM0rMqG/DuMOJ7qjcV74mXAtI5bxmijvFjif0YIqVDKG7owbV50lbNYILXfNrF14EpBaVd6iNhwswJnr11dc049P26PuP5iqxyY7ib/14cKHu6pw+ITF3eKyakIFVDlbMG5bWcccKbL21nra9Hx9Dn7YjjmsvDj1t/Qiz9JS8BQigK6cj6cVYthjxDKP+ZF2o3DfSLZ9jVIslBzt6uXsC6BO5N6NULF5UezBC2hCqZW+3DwP3Vr0wI/BEzFEODGFOxfdBTPNfMyar7Q62gLOYypLmXa2u658WZMwnkr2T4JJ7dHfUoE3G4FnRZW5pTVdDmRyj9haG2E/EvJLWKfruIL9QpFMJXjO23mHaHpN1oEj3TlMftm788y36EHOJeq24NbqV0vos/r4/YMcNeukaQFTkym5hGARgFuG+z2Gkq/iZi7sqvAZbtme9KRo+9JeoqIuKPrMCtE9ERY1264fQ57ir5MkzBa5+fsYt2xe9ISZndce38V3fuAluWzFdamjxlO09xED9TsKDAEcRrWKeJaZLzTWcSgvS/9b1tM39+PF6jfB2gwKlBvx4KVOZjXgZ5aBUHDrKWU1SdNuBC62xmhQzKK8kigkK8LHdlKrM7m4qhC49JR8eaaYqdV1fn4hRf7IuVK6TSsSku6PzXVQfV9yWLPWWT0IATgHmx6Iu6p7fF4KV65/iuMTCLniK17/wPeYCUnqu3+KPhjgw/xWe5Wh534pqudjr/ornXpz3stmJNFloL+VeOKmY4Ja87rtMGGo/OxSxL8ZQQf63ldnonbprDQA+BrHeKyEj3qgAOg/1WvzLsBPyMIZ2VbrBdux4xcRMzWSizdKuGZulPWAAQJeN0a6Ulq/948dose9TH3aYIOPMJFmIb4nab/m5kNvNHyZx71nUYaJXeWg+E5w3Yut4Qj7L2y1w86KpvhwmlSpKGrr/YWI/ejLSTGlFk3VgY5WDetr2+/gQ819jooWi+0p3wFHE27+YngxP1jZtUVuBTHXgKCclSaUnZZ7DwyumPoxRf7IuVM47segzK8J8vzRBL1rsnX/FO4h6cW9jhFu+hHcgjssF2fZKVl6SKsykGrOY0b25z43cpC+07O+uq3gH0rZQwrOAvTU/GaNyGALoPve47CF0mZtIYbN/6/CQTVxKc15M7ok0I/JgYwT4LLULlgIXjsdvRWz0n0qnwIn2DpKUQvbqGwJAP05a/AZstZMP3alHSmskZrIOEnspl0gz9e+ndKYqqEW650yfN9GAlbgaGMqRTUFLPNb0GL2aLZWTdqW0PI8Oo2W+zzIAqW+AyutiDMC75VDztGhvmeb7n6Sl3vFJ09yxIp7x6drWYAtMKhHeAEx64Wzi3Lo+Twv0KpdbEQmx0hsCSdnrmQo2emeUg8R6bznxCZxIkaK7+PEFeAakmVLptN+DSaUBTRFXmDdPoetP5oWKqKC/eYT8sJaPDmTsuMEokkbjNSGlpYfK6IMRI7jlKSML8S1zEmIgpIl3bHUUjg1I/Xu1vjPRqfZIr5Q00Ksgjh7iDPy60cVLn9EnJLAUtd48snxpX6wJCVNH7EHr73SNyCQvFHknl8sFMw3kENOKXz3/wb59FHcMJsoHdmtgSZFH3lgMkFpUrRcTDAFoqUsE0Dmvk/Qq6GQPzMz2DNrj0ehTpawfBa57qhZIb6bbB3H76CPnYNI9+ChnTrqV0vJPdvTOfyOlp1f0r0RLv/7lGRdk2y/Z9CSZjLzsN72F2Rz4z4mGv+NrmMUE953iD2PY5jx7gtHmZeTcx82XZo9AgPfV1kYpW3dCrMDMepMUfXeQX1hCZqoAqxzUn0F7AXQDJbwoLBZ7IyMx4h9OKvmkn1L6uPncl46Z9KFb9NL+KPquiOj6k3mhct5hYhbaB8NsO171b7GMTFrfu9S8HzG8Axrx+VoKn4NZyeMAGYv5QfEpdX2UulvidlH9p9YAccL+TMKBtjG4QGK4/h3AViTSPxaQaIE7BJHonRyDAF+eXIFpQUR3ezVTlzYeFG+/+WSsHdHdXQ7UjOV6YtBlzWz6gQHx9TlApKft+RaImNu90zr+9CPdSml5hrn3B5jtuURlufZ91ysS50tSHV4RFRnrzt72iZL9XfJ2dS4MfDjwNqIKXfFMexxilGnt/3N28seThtxM1GCFADrPpcf66I1GXKj75rHeJEP1kDjBcck9pMJu13vNU+2mtC+WdatZ2tQ2e/0Qunitp8TdRZyReDVnUgFWOag3SdneAzH/eX8k8LvnFnXE4IuyyXXrJjN+926yzYMuD0YvTZ8S+kHEqD9ZFyrnFbrmmet97uciuje3ukX35cE+jIT9hkxGnvieS/L+T3LaGC3zfTOSimYdJImfpafYI5ZwQANp7I5ePBsDIMWaqJoppev6uPTZ/yIAAIvbPnlqeobmfty8ro9SNyKO1CbZi6aFfgAQX8+4al1KRYZD4TBOqLD9sEQUL5xc7587L27pq+u3A/Eu59p4sJ+zPUQO+u4IoBvDFeoBbN9WtbjH8bQdSR1FUw3R4AKQXsuxLjLAeZE6bwsMoStyDEafyygUbzgcOCfNSml5vkc0nmUvVXYAs7zxqGHu+AFwb9VLSct6rxcCiN44JXrLj4A6vtMS7/ipuN18n3w9IEC+Q/mzpvWxMSgWWELDEHPoAfTvTovbuT8iXSr2Lvczo8vc0n5cU7VAl2r61HtqD6TYS6Ug1sJRYpKt4AyzHJTmOj7pp9Q/PDD4hJqasZwvES0KfEOd7Uw6AvGzGIDNTs6qPxkXKueJJeJPj2rZ33VXgb2NSnPfdzBbEe47UVEts4x+wL7pRXlRl4Tn/gOjWg5x86/w8yY1Wz3ayKF7hTd/OH38z+/1wx+4/BGlf3i1MK4s1w+PwuICXderoEby2Gg1Q1Fi5/0asUQDItFfKV4OrwCuK4hqyQ3PcKwGltCbdNZPseNqP6Wu6/0P/AcOTFkprnDW/xuIBhZke7jU8k+3P/v5olpaXfltYRgALMi2ZUX5S5ToSqRa9bkTJ1JGS7ri+zMC6PvAYl/xWpTJDP2xAf5rNr9ULmWX6uVMSUl4kOd6r/IDOKH8Oo40lWhVPQ/gQxY208jK7xTbi5OIVZDZfspDAND3bqmXPqVP21EOsxzUL7kHfrx48E2ghIxNVI1DCflDl8wCSK8Vt6ZKT+oznXFH4PcVcy326PuP+g6s+pNxoXL/1rn4O/8A9IrPXi8kFzUX0DfZ0HfpwPXCBvuRjA8mOrH2QJ/I/XtT4QaG9/7Z7PK4WJyYecplEuUiCSq+vXWjHoualpRw59yDW05pf6I2Kxb537nWwZ36nnbsnklP+bEVw2sZChcADT7RwFWupNaySH93kZPPvY0oh4Ezb4N80JFCfS/b9z+jPLnLK9572bR/tJHtvDKvME7dk1sjueEZj1ULbOtSXUjMhHQmHvDtP5xyzUBCya1BZjlIZygdipPKeTuvrEYgqSDRJufvFdhuIObErD8ZFyrnEe+BgYmeB4AsR9+KirqU3s4OA8DCkq4i/LejLipasm2ktPRJJ9KdYgWufr6XgQkAWx6B/JsoMyCn4gEwopxlriMAoIvnZkYPboc+dMs4iCjyxSGC0+/4Y2K3Ts/UGl1Glosklxt1ssrB4I4Pz6g/jcrotB+7UKjv+eJd3VEt3yj5oCOFzj5XpP8Fh74LUWJ82rdBHNKJWIN+Wiq5C34bUeZA3pnZTJmkbTxJRaZEXk0bvjPRYImcaLZ07Cllww+c3anWdSN5N4jkh9hTekr58Yzn3kFOBpt5hPcBdKT+RM0oB4NdRcokXX/uHJf+LZrk52xkSqSpMvLaHC15dDlYF4KqP3cuVacxu+C/xH/J4yj4jI3kz1HxWfAxfrEoR8ZgselMFBn/GX6ITTky5opNZ/fL+M+aCoHlSCMSm86YnvGfiSIiy5HGIzadhUrjP7tfRJYjjUdsOrOvxn/G9IgsRxqP2HS2lI3/LFQSWY40HrHpDJQb/5l9JbIcaTxi01n9N/6zpUxkOTLmE39SVu7PCv/cWmv+Z6CcxnJk/KPC/51UXsh+/j1I59ULrz6N+Z/VfxrLkebDAP9Gnxa2K7aVNKfUKu9WlmC8XtGnazLHvykNE8yRQKinjjRoGq8qSVJ2Zb02lqm8fnXNt4jbzla1dzuaWT18hx/4u09jgDkSAEI5dSSJUd1j9CwLOq2kvdjoXfOFjh/4O/pkgrfOst587wyi1q/qyJWf2UMJQs6RREZdziFndEmTVs4rUOtLUe89Zyk0/nhJnH+X1AjBOG6xln9dVQ0I9atbspdOCcLNkWRGLe0RaqPLmlwDbIuHKklydlWdVtRY4YOAWn8KKjbMWyelUce2l2h28sbKMYqlg1o5QrNbaNTul63UImjLRfUVWg5VXdUU0dJB3dCGtdIuoSWQuvyjE/nW1drS16onOMqzdFDLYQLNVto8np9nCaR6ZZBcKzXamBtV1RCCpYM6jlOs7aRMVynMtARSPePkrIoGbZnbMosHtdi2TLvp8eOoJZBaKcTYvPbxLR42MebGKS3XUs3y0kRLINXlgKdp79vSQV1+9kRedbX2ttdqCaSO4xJrm29g6aAuL02M1Na1CUsg9d1pN71Hlg7qf75prZhFZhG0iferrf8DWjqoV715zXGnyBJI3dsz1K51v+sjmnz6Xp0XjqNp/t2XzBLqth6iNoMlkPpnvrj2NOpHh1VjmFCd94TahjdkCaT2OGltbKvE4kEd21GiXcfWzIa0f7dq+2vxsOWipgrt+A7WEkj9JdrH2bilgzplAa1Ky7Oq/V6WQGrJnWJtfbdt6aB+r5+lXcWUlkDqI9Q2dbBmEpp/QMer3LIlULUjwjK0Sm2MFY13Js88QvcP6OiwLbEEUk83z4pWW4ZOceT1Ay1++bHpFx6iafWHb4wU6oY2rL0kSyDVM0nelGZvkptFjo1hAA/oaAmkukfoWWSN2uuxeFCX5SzUNl8pzLAEUssfcj6ONoPFg7ru+sQDOrb48WtK6Jb6krTRpU2uOMv8IWY+oCPhUk9Ps1M0VI5ThB2oeys9oKMl0JaL6Cu1nKraH2U6MIUHdLQAUvc7n0alVfLKVANhB+p/vmlttZZA4tavV5X/4iytkP7UJiwd1KvevOboLDLHMZOkukyb1LzBHB7Q0RJI3GDD2sYsHtQD0Ta8IUsgddkHfO0huvh4Fg/qzzP2D+hY89m9lJAvdVkusbb572LxsOWixgrt+A6WBu8bwwCOrDibon78BNnSQZ2ywLpS+1mfPB9oE4U2Tmm5lmu803lmC4bxgI55QOoE2RNLX63W8mtUR26uYBoP6JgHpFZNkr64VsRYuWVLB9UjSvvtHWvx+eQDqR4x2nVoJRwnzRSM4wEdqdJi1OwcKLDeULRu/mU8BRYP9vt0POGNZZ2J0s6pOTVqMuXVOb0gG6Eq58nXPs7GLR7sukJSxy1+XZq091OlRoG1dxulKuko1tb3hswRTOQBHfOB1J0ylWvH19zi4XDvuWOZrXW1JHklU5/sBUXucFXHWNV4Z/MsHeyT/ModJ2uI+Qh5QOr3yr1Soy1jQzGl2YGhPKBjHpDqSZCzKes1e7PMDPC8rYynttS0/HMdZ57/e7eqqsuNMnZyQWe8H6zOuB17SriobyjCD+iYD6Se8EPUxsUE5hHr7ch5uFh3JKK10azLE+7YUMot/3dFVVVnt0hbtVuIZR7BSTio2QuK9AM65gOpP0qzW2zY6TjFfCzaD+iY/7uiqj4AhfVVWs6l2uWliGYQp5BwUfce7Qd0LOUBqfudT63W3vZaLR0n9tXUdTzXT074WGs2cdhqZL9VZUx91TSWDvYbnXrHzTxvun93zyilXOM9YKcTFDtFo1bcVmp8n7cVsV2x1p5OzQM6kr35lClSQ8Fcw1Yrhpgb1kq5REb32Bj0xl7Ub+/4FMR9BWOs0V/s2CkB5YO5x3vAsjG+9hBftsWD3WTe8Wd1rDfhSb1CCcDxBHx2eYStsAJqRMO7iFMDKoSLoJ6gtvlKEYY5WC48oKNqn7cVNVxBl3/cYCMHA1MAtPM/8RwJw//suar0sDiwRh+mDgE3+ay6mFmmbXt8ArV4sOsMSep9pozEAE0OYhp3HZPdW1z4YKDac71Y+bP+WqE/B1FnpkDe8srDaWIj2QcWlw4sBcqLLNIXuh48HJdhyoIbCi33snYLFg/2L4w99Xl0i9ecGnHUa4DiClSdaVx1WlcVSJ3+8is6dWTwFSmsrfBX3An1U/2Nwh2mOij1lXppp2Csz0pXXuBuu+O6uylSsi+tlXrQ6QyygXFgXaXh4oanDZdBPcgx1jTaLh65GREzh8I8HtCRFt7dRcCZA/ng6PTBhAhSHQHKSwugLsGYn/zOnYpCBbAz787KUsvYARgDi6GT0htlMBnGDIyeCTFBpks3WOM6mTWjBiDryugcFrfDghkjABOj3DJTuMtiVVWbS9v/muIU9fW4bNpHqLGwYXwfV648oCPVoh1/yVSORrAg+vRX3gl0c5ZQFle99NeZzBTIb+FWsTaZEbDxJXK/kykwK+QlltPOAWcxSSbBjNkwfqOrhUmxEObDWIH4BbfN5AtkW+38mWSBq+U6iP/oJzbxqEzbgzXGGv7jyoFfw+G/ctna+d/8cER7xWh54RMbx0DqClKdLF8uaPNkEJUzHgtNpLI37V40tZn31qDfjsFY/cpQFlL51uDj5d3TA9ZpRwcsubhh3HIpASU7T2CiNFIw7rYUS7bE9CTa1cRvbVe5iQa+7WGeoA4WQ2efGQXEpdYwhQAPxKWwX/TPdazBE0CzePs3ldLeShFHvW4AgwAVu05MZtfcmfx55z+C6+PmGSWHa6tgfX1cPyNmFmB8WfCQ2NoaLxCYGVLkx8CNlZExUvSQHjwcF0LcwHc9myjtiQUvb2Y6A8NqiAYoCf5H62N2XVXtJd8bY41SSEksZC8oZ84o+TrDEskyKg+d/bT/fu7yh5ucxBAByC2NT1IIULWROWI1WXelGvr4guCNMZmeyngYH10WguNgfWun8QKVF0yt/akiIleQHZwbIa7ts6Gb+Ik3ZFaCI7KG01zxCGh54xsfpGABofrUnK/G1DScLOQAt5PKCiywYJbaF/oe4BviDFwZ6KjM521FCu9GlaFtmrkTETIHMne5lo/Chc/98qRD/C899VaKVRYB7GZFrJBLvMQVluWTI0d7BS8WuGasj5ssyTO2DIUFAQsrOHGecZwTJwKxuRkJrzE24mkWP8Udk9vLtvycsSgOv0ZnjjSOunzb23U/kS8fdP7FTjLFWgEigB0JxmUCCy2Y7IE+xljdRUF6oI9xV/hiXDjcDPsjOn7Wj6XX+8YwUG+lHiQzBQuS2tF4iZ9ilU/kToReomdUyBe6vlsMdm9+EXCNeF7AaHnWsUCm735UFD4NzsITo6I61wJLh5shvg5tbeaDNBuhzU5CLHbrxqJTh5RCdJORTPeV3iXrb4ZdEHHJ2ASNDxgDcM1yT+6LWsqB+4GN/+FH5O2kEEuKY0b0/Wd9lVm6hWVxAubMPz33DEqWd+dq2E/R8dsfM7XeMy5vdhYK5b/SuavVPImMY6c/ouWdqza2Ov0SpP2HqjqyPv76To1l8uVFCl9d/lOHDwxLRXFlZJxeWko+QR6ulvrwt7BIcGK9Nkb0K3fuFa1WUKeY0mx0Eizgij03Br3rbDV3PPWS2DTaao50yxZJO7xJbps+5U11NIK2Hxfwm/oOCmMkjAh4V3v7Z02NW2QaAEyBqWAPKwbjVRAL42DKXAz8E3fjCLvr2FOJWBn11up+3RjTlgAooUDlgSMZC1BcQdRxSrgYYOZgSvSJh4ckUD03VAGFt4UZgMkVxF/HpRC/rm1r9ttysxHUWWgjolOH6F0g+93qxg6v2HUTG0aTdSuQ+TbszO07dWzArUAFwGvqMLXH1sAmsPUS+Ka+x4VpoiPSb5Zfb7bgLJvf/HJLR0g7K2WUccIZuDrQkVav0Nvj62aNMXN3cNtF8AyewioiuaV7SuxwtaOgLsiuIJ8BXBb8Ota3xn8IMy8s+t0SFMjYOGQPuuFJEtOTXKjlhumno7UzF51ptJfifi8HySTGocFGgUHxQvZIInVZovZms8V5jrymDgCcIyNB6sQAjHcBp4Yx+WHY/bRVsLU1xlh3m7BQMLbG+Ao5A5cHOhLru3PGY1/pn6avNmoIBXB/9bGp6brHR/YULn7tRx8vtsBp11Mwxh2Xioo5iwsvkMEcY+yaD5aEL8atl8ty1f1UmDatFIz9Zl0g8ZAzpwFi2V6+eWg/Lpo5mLsPmq/1nRne9kVTcnfrB8vzZQKPFptbWz1YSjAtQJ0MAJv2W/ZEc7wMYEFgfVb0dfALlIGOBhkx+ZoCkx0oFM44j8v1gY60qsFWyeAr6y61rOHU1OLwa1pnlT2arJItkqa217G4bTV33mxYe6al95bzXqO+tWLWQOxuzmduPDdUVTBugf+D477aYG0W/MH2MBHmUeZADlhmwXVwYzAWZsesSrbnfjj4MW6FuiVtw24hlnnoJFMgl7LmzGj/ohIbxnjapelZCBGQzkaun0A/i9j81urGWmUj9ZdZAbMArHry6IDNPfEyCiyoYBa3z7NCLYVCWQWeRJfloPO4XB7o+HJp790h1BlYdWj/g7r1N/t3O8hfcSXQTY8jRAA7Q99wIVzgu0LybRZVnoPVx5WWXAB9NwrGpztzvhDe9Z2L57pZ7DhYRsho41c2k6MGMNd6D/ht2u84OTMQjPPcZqW+ExWdPeSQvZKZem/pb6n6a9846jVQdSbQT7+C7rhDNMDmdgVyL1j5A28KrZaM0AgUigYG77nocxAKADrSKk5QdWg9cSezaVz18m3tpQ7ytoPj8BrbttpgjwVjsg+f1VRppihYsi9tlOjjy5CTVqw3aPVoGIskIn2uhQ9A4c1K8aerZ/Y5w7b4SU/uZLR1EHWYH6HBVq67VM+gLa589akZ/IduE9Gp47qs4axY6b3Dh8IEAHV6QMQKLQA2bUWQFH2Cn+lZoTYolAZcYPeFTZxXccq9kx+/L0K9Ym/WZ7S5MdnDiWT9L2z3oCmcB2QxtqbpAnoKF01XrDHGrD6LWS72HrD87ImHo619v809cJ3PjblEY5GPdvwhbUZnAHkzocn037/s8ENhSoLUvZ0UyCVYcMH6rPxTYaWFUpm1AP/XGpjkjLgh9iWMfXxuYkUosoUTH+kjvWW/+fMBuIIYdTlxX9U5l2q1wvrKacw8Z/azM8k0Jiv1HFCbZbZ90ldoq+lmlnBGUZig5U86CuA72sku4COwNcYvAKmeCf1uoeMGVgry3RZZOOOJMoCOxIrsW6rx2uvvnPG4Yt+lpKsi6g3ZLTZov83Mc3KNOzzajMOvq4kk5qHpWfyQ0FvaPek8qbD/am/FYPb9qo0tg2BSgDomYNjiWPL16QDXsrisAuMpzRf8WaL2yzDwAyejFIUvuPwLXj6QrXTUSt/bBa74YA934WMf0JFO3+0sYRFK+efHHKprG13apDm7REbteVvFoQ+EBx0YlcQ0CM/QHmmcdVp3ldzWxdPMkfqZ1Sfm4fmyQec/zMmOp0wCUNXFLnrjcjUVAFt3yGnDzUyLrPeEG+JJYPMfOAXswUbpNrsCkHWyhGVbeIEZFk5AKUBHoqPEo1PNpdorI/ezFYhF38dlAPdIdzchrHPyjhzxhAN21DieAnDWA9+MRdCC2Qjqx+rjpvnDYbL2ZWaNO+CVplPuZ0LlOisuchZ3y89Pjw8a5mabLp2UT/8XaxWyT2Ryxzc/XN7ieNhzqtppp7PcCN3s88wNaPWRmSMWJ7d2MZmdMX3rv79q/6EcU+V3BL6IeBX2TZnhDV83xshlZLoqG8bYGumBWhf5NvoRoBigYz6Qam+Ra9/udZl9nmMIcHcyaxeoOllknaUGOM0+5sCOzi6B1cjvi8UxVakYoOP3zv9dUdUpC+oU2nV+L7PPs+Gh/8ZVL7/3H7wmlBJ+zMnaaNZ57LPJzANSDzKPWqMVWFdOafZ53lZ3112plQfOyO1aP1nSFRN7xh3P5d/lTUT9iM52ylhu9nk2PBQAqEKtUkFAxxOSUh5z3uLduXYHoPfbXmLGfd5WygI65gGpFQ7Zq9bK7heYb5+3laKAjj9/Gz3zvN8VVVXL7Bdoq37MRunYGDTySmlAx7yDXP0r1n0QZlO5/S+W08s5At04A2yT6FbEn7B6qN+546hAzGEv6rd3rDWg0s3ztpqFLRMzfLeqqkd+C9rME2RPhPbtFn8nqs4A526I7BX+rI71xT2s8de54xbV7PYCbIIYI3ULuZe1WqGNU1OG8l0dbjuIqlnYrc7MHQA6ajhHqtkNYu1AT1dytMYn0G1rxSyyUL6PiKWcLj9yviGuzhjZ0+v4ZBds+q4O+1azx4+TJwZJfTk7KdNpy3IWhu4dCTcYVTeIj2iO1Celbdv4PFNGfedIxZoPMCzP+is1rNhW1VwwXqjesLA+guogsKLCQR6ple/jynVTHreWc6U2lP9MGY+EG1Sz5QJLSqL/nznO3hVYM61UKeePziqGmaF5Q8Bc4VTeAG7eIKl7u3R1tbb2tRoZJpAjleiNYNYR85cpbi3VfscXDsXrH+6WU3m1OKjOrigT6NhhE6F5B8XNqVkTQCo+Ex+ADmKzCqF3qeBAJHoExq1BopRykEea5CtVPbmb1t5daP55W70LLKdm8nybbzZ85rTWb6rl06j3O7RuH5sfORVBR3uouoKDeJJ4oWZJbbB57QSNyrExjCBHKvIXlhMxn5mHNL3236YJpTsMHLJS0n8UQW3s/kkdtINNSDjJIzV2VlGVC3Q0JnSfI9Vp2cAiIuY3s9Nx1E7RoDlsS0LpBoFnIKia+BA0hkPrEEiUUk7ySI2dqWEFAx2NCM3nSIWyhYkj5jvjhjNXrR1I6Fx/sAGEBHjVR9C2PdqnM9wkSlaA8chXp530gzAetJ8jlUl+Y1BfeDvbIicBHiA57Eu8JESset4XaKNKmu6Vj4MQGJf0Eu8aOPxv/RAmY0jIuEWUELPocI8OIBCxAoxHbrmooUI7vuZGgwHkSEVi5w3cMU+v02MgSyGS1buzWFuarPGeRugIobHUgY9gLu4Y1mdklD5/NVRPTYS4Ghw/sEN8u0EmYgUZj7zbWcKQ60pt2FXNPUjnhdQqMnj6z5HKVBWQi4ezaXKPAaJaizHJtCG0SoTYuIo3YSxywTIxMsqSP/uOaiaFf1O0RJS3gkSg8ch7mEasVmq0F3O3jgghtooMmvZzpDpJhob44dmsk6yAyLpbWcKiHZJ7kEZC8v9JcT+ToTg4uG/RCLk8zREcdfL4pQ5VRMpFrGDjkfeIII+oqNcGMMhDbhUZMM3nSJWSXjPY8OzKd7yc/wMEF/4Oq4r8k8x3eOHP//wdlzdhJmxg9hihB1PRnkrJCjgeeY8jtJEWG+49xgvBVWSwtJ8jFSr8Xe3Xw6PHUhwR9V6Dz8ZKrc/2ehxR9QgmYj3273pnRtSPqNGDqXSVUlbQ8cjvF6KryEDpP0eqEpYqVwuZeDMHBoBH28CKrYZHCwAHNhGZ4OuMCEmlDPyHB5IfUSul/KRHqjhFBkn7OVKdWNHuIazx8OTDqJYC8HqU+8Lc8HoALPUhzMOgYbBXI8pwSor9ZjY9R3Tgn4/0SCWnyCAZQI5UJ/l/Ql5ezG8FcNmfjRVcn+38AfxW83jeVnlhqhghkjqcni0ynBKqJgf++UePVHSKDJD+c6Q6SZU6yUdCgvBgDg/g+bOS6/kDOLw1jfqt2NgD0UiqWfS2LWPQ4RS+0SNVnSIDpPscqVaSy4Kp8Pu8l8MCuHA1u3AAhzWOO1o4LvRrhErqjhBJjSLPTyEQ3D3y+QM4fHBMIEcq9KrMblxAYeG9vEQA71DN3iGAl2ga0sBZlAtZ+uhl1KziqEf9CvAeeeEADhsc3edItZLKdU8B3BsIz+WSAFSjK5CE5+NkciV5gQEkBO/PBeCSDMPq3eEvjFBJ3dEAdeJqQCOpArxHvkMALzE4BpAjVUopC+gXMrQR3nsHowBH14roD4QREKDTX89gceduZyw4aJsWyPZ+bkhaYwKAWbjQDDA4MpPj/sl8dPK0DFVSBR6PdC+JnKqrSxSyq8jgGEGOVOkvjozKChfLH2IA/Fc4pTiGMIhWTHkg3AUCPNuKZoB0uh4jAECAt/xMnNCri4XDnYIR3bh/kIO2pwr5hFrw8ciRz1xD+u86WQKoyTHZibQUaJsZZ7rj/JA1NoNjBDlSqT/Z7Qj2UIAHE82PG7tPsgq3WYFkZrVDEkYodgOfr2toVQFI/kp0pe+438ymlNNTWAHGI704cXsyySvEk4zaP4oMwnYG79L5NgAAG1ltPUn/OVKtRLJIxUqBsI3wg9TJnW/aOXALIQXoUYoBthPc5cGAX18wJIDzj4hY3xVBiGISz9tqI2GQiaz89B+Vkqb0QxWRMpGUFWA88vJxGbLq5IaE1wECdOba5dmTNxP0eQBXubReZAA5Urk/OL0auNcSvo0A6pZ1zXqCQg8EqE7mld8475b25GpSiABJbMzkkEq122IIw8U1FeAtT3dqsPZtoM+Q0tNRwHn1YpfQBnBXSDnns7bBWBJtiGIQ942xdXd4ICPUUZ3jQ46m0JW+IOORWU8ZYDPZJmtZjWOA+6qU8xXRfcJdgCWOP1lP0n6OVPAP3rMD0tUfPo0VU4LHCACIvWsDJBM85AEACPAHQwAurimICPPb4PADAjEB+YoTX2dChj/bQ6W+Lx3cdCWgjkoc85v7aK6NQ1f6godHlikPJy1aAxL7WLl2Swxh4FVK55LwGAmqPYhNDpCEwXDXFYlsZKqnc8cIs9mp7MoNkBtqoAf9nutuxjkfYXAQ8fWvGtxQLzKCHKnUDyxxczrHoSDd1vkzjhRhrkYR9ykMJxj1YIFmvlTwYHjbxLoa+T5o1jeFckl6ncI/DMUqXUCWuRbuVmmBAB8JsKOi8JnQODRq6+ngAyuExlHX7EUc8+sSZYeWvuDhkflPmEHEoF+eaXbIIKK0pEpExlPj4UkuvwmbSR0Xla0fR+d9CkECfN5W2s+RCv5BrXJ5YnDfCD/Giim+phhL0sA59y63SaP75RFfRJJFoeU8MvlVZjQW9THR3VU6OXDkFNeHQm3EHT5wc+RMcVTH/aYNtwxWqZHSFzg8coVcdxukUtQHhNFuWZucgLui+Bvc1p7gTfumsl5ADIwjEgHecrXx/UhbSU7fRLsAMxo+Ezkq3eqmQpjgSv85UsH/sa+39r4grAC/Bbk6HOyCODPAHJkJsGYG0LkV8SVZ75K1y8DSaSVnZgl9KhAGN33r1Hm4b819NLPGMI5oB2/fbiBLX/DwyLnJCcXkF5vRmPO56T9u52fjcO5dakPnfQqfifxqY7cY0G6l9SKd50g1E8l1u8KkAzzmC8DFXijfxRpARdg+MbUi76oOzZ650IsFeCBkLAUdTBmgDgo2Qh7TQEMTc125SMoKHh45N8Iy4zDHHKvcbVJjUkNiKqRzK1rZ4+Po3KpeZAY5UrV3kKFQBVvuIjlsc/X8FrMK10LsAfugMM000zw73xTCFTkghJ2QyACBA0fe2bpQptVngOSZjGjmx0iArY9OZtJRFZEypZQVPDwyfCZQcXZMjakxWq+f0XiOVDRWJCc9NXWE0Z+Be5rf569YEd0XjdKSKtYMpABvnZoM9+/6PIGtq2Sj9Ptp3OFwr5SQ2dHfoHm0CUd1k8hFbBZDcuQnxpv2TYFPCqaZxgeyGw2Io8pMjadG7p0vwOcCHUi9SPc5UtXv6gzDKD/XvgCO+1t8FZ2mRjufbR7n38CpGC/tlRBry9IaeTdfQNh+yr189w1jUPNVeNGptc+Ju2SvXzKNSfqt4wIMfgq0la+XzNE/2tjvHO06A3XUOJIjRz5jxEJlL07HmoFsKIdbD5khwA/Wx6WveKaGNNSLNJ4jVY301Ei1SUygS9yqGBpi8w7KTx3361E5DXEHlSSwC3y+ZtwAK8cIYKGyN7oy8UYP/APwZwFsUlLZHA2aNxbO4i+MKJWfH5lTuAYZu7SFoYkacVQ2juTI0wJs1lTNOPdh7Oai0wNdCOej9gziygwY+NFy18J2yECG5bpmkblbJgHHeQWvF2k+Ryr6XUoJOaQSaBrnc8WxEJZpPXzUuZQePG/i+hgA7IC/wsVawjkvW+1oBCxAcP0y5nXuWz04gLtqid2IQ2VjtJ5MYRDb7+aohZ/fmVBUco4zDYxRKQIkShHLCiQeGZ708itAbBKAJwU8HM4Ltw0BwBOmRYs6TQ3ENgL6PXd+upAkwOdtpfccqe53EVNosIdpXNC5DwVgb3NwPur6NP5orrlfGgJSCCcikJTzJYEfIHGcn7LAENfUrgThmEO52EUEfWmRrmA2RQe3sQfop3CMaAzVebgaWLOtIzl7BIcSM+moAopHdsrYEASAWCuX0oAB5684eb8FwEeVUB/GeSApMlj7EgBYmZTiY/LUi8fG0HyOVPjPcfNFJ9cC02fEAOS64yF53O+jkEtliIa841wA7/p1e6Vp5a+K7PH51gFsHf0psxsymCK4eOTquzb3TxPjqIryau6EUUB+vMA0cCkCSNnmzQNSKOf1Jn3nSJWjn6L9fc7dJgcATJxBDrMPZpB9HGaQ/gDA/XXvjFr3ZOF/8WPo5Q7x8Y82JivfF51ZQc4j61W6z5EK/wBI9Qe6GBvoFDzaml+gr4wAsPkJ0f8Qw1YWr12t+q6YOO5q1bvy+odhh+g/1eYBIOP6HneLdK38ztktdrTmZEcrqGNg7BKIzMiov9b1yBhH2zlSGxe/bae1MnP0yv0YhTAP7vDFgSdF5YJdc328JC9+yDmzAcoSams4ovC9HM2sMm/bLyomVEGZuYFHxi/azpF6uChUMecYEZ4nyH/3R0s2gN5jOBfDNds8+wX27Z4vlokjNp9734dc36/e7YG2aES/JCXSGiDZ0Xa/36A84drnaKiizkyBRwa8ku10nSO1cJHrBihM7FJbmhqntXL1CSEbFl+c3Tll/o/6qCxZ0vOOqJ5mt2kVd5+lUMVjJT2PCVr0yJIvttgR0QrxcbVKa2xqmdrORBGgKycrnzt4ZPyi9xyp/A8mCVA7dQRhquF5onXMHMnGjh5jOHJByvz5P4pIFp4Q1dPsNqVS5WMlC0/JRxHJnz8luWS4x0BajmY60XHhEYHB3k5q9DAqljnwSADw36dULkDPOVIjl0hzX5XhOVq6OGQO2q+Z49Fsj7BmYoEF8VJ2Z2fnlLwhqqfZbVrl3WcpVP1YSclb4uzsnJ14zeIxvlVvgCPYHs3HbL9BmR1cLFMbqnzNI9GZQfBIAPDfp1QuV8s5UiMXZFDFxDs4StuUaOi47j5FiO0RBliz3rcS39TCYjgk16P6Uj3NbtOq7z5LoZrHyhfzigyHxMLC4jF29K16ayaWhKTYvasO0TLVjgr2NkGGUsjKZxI8EgD89ymV56bjHKmXi1wSYO6rsvMMjDB1yBNt5W/mkyLEK9kRcg+w5jXrEfkNGijV0+w2rfbusxTiP1a+lYdEj8ia1zxA7iMk8wpJQZS9lUEeohXoaYcWPjIzCh4JAP77lMr16DpH6uRnyXTd1E6hhp6B2i7bjsscbbVf14I+jilCQrxsbZPxhPi0kfXjzBSw9xeRO/GHvyNrJrS1BnaZfUGcxJ+RtGfvZaSk22bGme4YX0YANZGLk8kMTF8Pl+LO3bGj7z4ya0BzhRk+IabElxGf/JG1zZhgbTLt4CRqr+dhP17s+pfvVtfmS4ytVYzwqLy3VtgEfzS7TePfc5ZCjY+VZDwltrZeISEpHH0Kuu7XKjpz3LZdiJZhqJM6QFeGGCrD4JEA4L9PqfwGLedI/bwz0k1BNqIs/UyJBQZBVvv1dzUruPvd+6B542ovX3Y1dvSwz8wC27f1sekkP/GjAQCSfdU6Hedj19hBRAZhXRxLGX4gGtQjYv2vtweATLZY0ySIeAi/i5as4CBsr8dhP7qOngl30dH0Fz23VtgEfxw1mZqfvlf9+eNoanv3pSNviA+a3e++oJmrv45VkAGxxNTPMopsKdyohc8ne6R0Pjy4XPTkI0sL5M/n6+MS3At27OiHj6zlmBHugSotN/nhvmtrKlgTkBFYTof5XUXdyjDxtbVteUi/hcDMV7Yrbz9G4sV+RSlWAee/57m1QRy8NwD471MqT0u7OVI7F3RUBWmo7GJSR1lGmIY7xOXJbBAdFNQoVmQei+rLj6d66jWPGEKM47cOZDaIXVL7gzU5gUKiGt5pM/jSdiGSNS8AwHOtiLFGG6zdCQAusjJJt+QX/w1IpS8tEwUHdC81Pzzo+umufNY26HNcVWafWAbFLx3YnNzfQdhej8N+PJv3gIeUcfloH+2jPWw8rtYd6r21wib4o8NjY0XmSYOCog0y54lzCDeNsIxKHWOnQloypMXyzx4plw/zn5gCEcvWyjg/3jdKdtTta+AqKzd52TJHIwCAy2wZ528g8YiJ7HfOXVdEYOYr15X3IYOMDe+Fem5tEAfvDQBv3HdReeMazpEaeqdUJCcbal+TULsYz3MMtIzwMz1++LYdHIyN/7wGyoefchN4SAbv+355lFSd72qEPZQ+VMoiX2OkkKOsGedXBewhbbw6A8I+PeW6gEJKNSfjkBHmr2ZwboDA68LNsqNE7RUf9uNYv/qU7UJya91N8C2O98bY2MFh2+HHN/WLsAw8R88Yu1ATXzWlJWVZftojpfLhqwO2X9rqdEgak73RBgJ83eAAvt9AaqcoFyQT15uAAb++EKeo8KtSOgN0zufjlYFMLnossYDpvlok9ROIzA6xayprxw8TjyTHOefMfGW68nartOBLi2XkI8Hjw2r67Spq6bm1XgfvHV6KpKLbHKmtN9D67wZzBbHA2zDYM3VUoIeHpba29k/SQPlw5GM5c7VOr8QnfP0t6YDIdhIOGZ1b0U1E485o3rx5K0Tu72UYYKEpaZ34fF0ZYn8t56t6XVizFMGOErXX47Afx3qzklvrboJvEbw32tralh4egVHt4Bls6E0sUZgH0LT4a4+UyYeRQ429h3aBFoT40A/D37AVS+jrYXK+qsSXmdBupUoKv27rRXz9Myulsvl5SHP+Euc8f49J7NuMwMyX3ZW3qKHCS+t18N7hpUgqms2RmntDLtMlFqgVTiaqUG87w5jg4GBPHZTPP6P+waQ1gO7GYp8YzdI5KhScFadNCp8aJeQaHkACfyAGphGRdKbP8TZ/F6ObdY8bY5C/Q7Obk6i9Hof9eDbv4Qm9ng96yhBSW+tugm+ePDjBwTExhnbeoSqTzlCoiSW6Mjla9/y2R8rkw/Cp0ZhsT64xJ2Mb6LxPSgq/WdvgZ3GGYxMV7h6gO7Vl5svuylvUWOml9Th47/BSJBWt5kgNvqGUS4gFbsRLCl8nJxMTFU9IUFBaVSWqxZppRIxt4sGD4bUkZHcYKCJb4hTgrSQlSwCSedV++xzOee7OSSB2B49GgTVrgtlJ2F7xgf84DxHoXuSUE48G/8XQqHhxTEw6w8lXQbzmhi5B656v98hP6jIT3Y1FBmEzo5fhGQwYKBlOB4RL2q3IAMgGAHDOiTP7yNfeFFa/dnECM192V96i9FOtfEhya8UH7x1eiqSi0RypvzeoC2QSXd3IgAA3N3Nzc7UOKhhvQHgEEGvnFJWB/cyMqDACiL1r+ibZAs2UuLhoALEArvojcc5HHvkUADyELyXuzRC2V3zYj2dzzQAw9lHA/2JY1Dw45ubmbm4BAZG6uhKaJSyf75HfSaCPie7piPXb5+tK5zPg18/EKXH+wGAHqUbAvdwoK+SokmrKYwQS+wB4T4EuRPZy3GicTF+OawCAX/KQMt5bT7jIbK348B3DS5FU9JkjNfoO8i1ALpNJJBJd3pBg8J8PMsJ81gskBlg/OoS15oo0xaD2Gh8fNa6bXZsT+FmcF653ArEA/rArzQrb63HYj7sSXj/t0ClDv/WZs/t/phf4HWHpDp4ciUQik8nJokeX8MceGQiev+MO0J+2yilKsicnkpf5gDNtRt0kw8PhSswNAAnAA2AsqVLKGQDgsyym/8vKV6Yr7zWAjE1qFG8ezQsvRVLRZY7U6jtYqVQqIqIkU9VABYT7MRJj0vcyUiAjkI/bg+RtQ8z3GwBf7OBfAUe1gity2tFwF0s555ec4CYP9pCfFmAlqpnubNO2TwHvyUnYXpnDfjyVoeUfiNMKi1yT6fCLj2288BBNZz98k/OQKMmIiEiRomf5Zo8MxiUnPXsFZCxR+WSc5KoAK2EXV6izgzk/II7wFdID5yat2vwZkasF7pV2DkBpjZzCylemK+/IOw0AZHP/f5Vb88DeJnnxal54KZKK9nKknotFI+URCQIjxu4w45LWx3m3cwfyyqu5Mm/gGIntOzoJXwDyyuvCZ8ICXTmPvEz3YQUK2ytz2I9Hfqt43GGRajKN3XOWUvutPlakPCYsGv7aI4PBI12YDzMzYI7MwHQN0vaErPZuEphht5QZtX+Q3BZ+7BYzfs5KO02Nzq7GYu7KD0ZDgE5fg4DAyFfhdOJJXvyEX/3Uw7lS9V1UqlrLkYZQmerLtz4mulku+Tzx3jiPTHfaCOQUa7g8YmfI8JlwbJzzO4pGaYk8fGrybu0XgHsuljiI2ys+7EdBu0/wV7LX1or8RJ9YTabxe85SYXlE+HqPDICgXvFbJnYIqVI60whXvVKuTP4OEzkUy9bfwVU/dnE20XVFyjn3LnU2wgsiMPNV1JX35vf/wid6hl68mhdWipRKqaS6ypExsvy42I9wsQfBltb3BF4Tj3QtyPrEmZx/jeRdY4j1WRdz/hGBVJ+2BIZzfiSYYgo/QOL4G/hoyLlcL9rca1ohG2sDR0V55OY43wZiHyo/28F79AhrHT4T2nlt8zj3Y6y9X5zlX6xpnri94sN+XMXp+aNOBO4wa8X8re//lV7gTJlXeeoX7oq1+JcKt1bYBF89pslQae2xgrV0YmKO9O2jiYzdaEbYCYkbrbfBz/G3M5SWm251FnKXqyvFDLsl7nVyZpzzSybnQDhn5quoK+8fjMm/1GtrvZoXVopk2Y4/ek1JpqkcGYudzf173AdnzcI7bQYJdJAY4gCOiNiukIzOp8ZPOxrPn/OTpxNpJX08PmUjwEam43y8KhOAT5nYFwfw1xzNE7dXeNiPY59hLT7cqQN4H47PGZPfrHBrhU1QKMG7Oj3yoR9j1wXYT5dHOlT6G+HYOK/F8jYFPDd5/ihMMcUUASlUSeH38poi2Vet/5qPV4Y1wlfnJw/8s648Mn/DNPBhiPSY+bK78r7Z5LXUMk720+WnLOhXd2AJ+OcSqdT/wXsDAOu24rgjP4j7P1xsZG282ycAgHWUcZZwLo5QSrtr4jc7Fxpy/uoo07fi3FMQStxuAhBWyCjjnPMy5YHEAhMAPI31e1V2NE/cXvFhP25ubeO+H7wGgC+2FrfkmP8fS7i1wiYQJo98uN9kefhzVsr5nYKKhgoKP7G3aHIPx+lbSqs3xCYohB8NzGBwA5EeM192V9531IbM4FfvkyVSqfDgvWlcUAfxqGheMgCAy4cfDZpfWhyjj9vm5y/VPM/DfjynRaAXbNGuBA4g3WOEySMfPtFoALHprbIAP8o5fwu056+k8OPhGVuWACCZWe63y5SOG5i2dhUAYOWSHwOZHjNfdlfenV5EGwB4WBG/sd/IL5FKRQfvTeCOEgCospKrCuAQDNuTAOr/l65bKuR9tQNI5c2/o3ahU//tPnZgDXXP66i8L3an0Au26GLHyTaPwt0OoPYzi9WbyGDuPbIK4BB07FrVfrbm7jZIZDD3HvkOAfTSsQcD1H4GHN9nIoO598gLB/Av6djqgNrPKuqXYM7YGgDPX1MpEuM6z+6lhD413Amg8jM1PNLAnLEjAM7/s+kpRWJ86ZQwfdbzUfnZ734+nMhgjjxS0SmSkGX3Cqj7jOLvMQsOg+SRak6RhIwH7hQAgMtW8N/SxLQBDg6T5JEqTpGkjD/hNCi5pn1CDhDT5JGqTZG0jAf2qGJ7HOAgMfceOe0TMjXj7PmMRNG8Pxq1CTQz/KYfRzLyfDIOFGPvkXscYHrG3PAl3ue19h5CjQ7Re63v80s0MAeL0fTIpb82hZKopsiAEX7V9fFoCs1+0w9zZILGaHrkJiiJaIo0A1lOb090NznWYjJDhaNYZuBkAHDPQE5vT3Q3uSBdJzASrNm9vcPBbU9Od2WtACMAUorTxtP3Gjp/HE2H775MkoLGqJt/tKC1Od7gAkmSgmEAWZSNAAtrjeB0iDnKGoHW2iOYI6+zdoChLYB5KXPPfjtbZ/d4aD5ka2vTEDNzcd68nQLBt0PVzWtmZk7nd7Z2zR9y/lgnalfpkK2d+x11a27qqmmGkPc2D7k3UGh0dmtr58TUuU2l0RFgzmhz8yhz3bx6d9PG9paDsDHFps7W1tklj41KZ7d21nmon1dfsK0V6OQ2OGqOwIR0Ahw1e6yFAFKXhwoAOJrmrCmupvc6TXTfxUhzjS64qnFIQGKbM/cGCvaqI3BWp7NpgkrrANQxMzOLOqkJQDZWTyNcNV+0Uc3OBguNAJhXqK0TGOmFq9pchNXk3Ant18XZuIWi3ZaznY2u7+sV1BBzG0QlqxPoFW2g0zwIathTEe6v6WgGAMGXkfQycx1E1em5UZlII4ARLtzmqNamYQBoEuqaPQIAzBncu0CuAzCRRwH01hVLUwRGHD8NAIbnzR92jpdGgJFD1pcO6dgeCXIbyMxFRyc0F5vg3C3PmzOlF8DCKVOmOPZvvaJdcbN7l93qau7I7Lr9On75ROFGtfUKXw0D6OXYqNMvPrb9wkM0Xf3wTbhOW8bMswGMCAwzM08AUGKeA6DoMAdA5vilrj85Y6EJ7snDnhE0Mw+P1LGjFQDaJEhtoHvDHBuTCnZmjUAXC3aMo65muhpT72zwsGCY1+XRe40Zc8puC2te4uh9YwjVGWb3rgg9LnMEs3uznbuhQwr/XKpetKMRahb9oRWPsrCmACMy5DaQewR7Op4PoOT1gUZdrcsA9/CyFYDzx0Z2VhuAklsm7poux0tht152agJQ59WUXufeyT0+mgegnh2vFnoR7NKkqkuS5AbWAxgS/VFcnef3cfUCExyt64WrgSOOfexEAPNc6gDMdimxyIQmx0vhnU4+ek2JJjS61Is0ujQ6dQIYdc0JMvMQAKAp89IKIPWU9ZRKzbKvJDewC0BXk6O6vIk2rRVY2AvMd37ceV6bnAJo9d7KTgCOj1Yoh/edXpwC6HI1xUuPc6+TwbWzmg9HLRwSkNsB8iFHAACQJLmBnRCVlBKAicwjQPMwMMy8XwCZx6CQMwCdMnoBYErBuCEAsyVxIwDmie6vpOB6176vyUuj2CiA0NV734sTgDmO/uEmAMxtQJv3JvcCXdKvML9QXAZgnqwmAPU8LNzp1A8792EeeoVSoOZDzasvzQlafY+7iuxtDgCeCEzgIoASA2hyNVfwSvrKhDoA6Cnw1ij8Gog6WSmAKez4HQVVHAbQ6AGpSJPoe3+D1OV1d/AS5gHoWQjMdvyirmbXh28FMOQyBNlXI9wKAAXeMOS0EEC9LB4GepsAFFlYw8AEkf0CmCjSCsD1y4JUD2Cir3vGzQB0NQKjzuFZK9Do3hs3ucwGUCeJGwEMF3jrzdyDILC0OjhqAot1ebzqgaC9pQk9wtY3Bsbddhlz2F1tgKt7SsL7KSwC6BXtQ8GyUgCYXdgNKDEPjQDolMfir4RodP4GRXi84kbXvWxknUCJO13jq+IIgsRzALSlrj+B63RDkXnUoclhjqgnegQ7zsYh591yAF3SuB4ASgVmgnveVvqAxjYAQOpDKwAgE+yzpnTNAYD5QvUAgAkTAKCOmwFgePYcIFhFAEBbZ2sbgF5Rz7S5+mRItKMeBgTtHnVu8pRGOJorj7sAICvkvhenEbiqmX0YBYBhj6k/AHM82jkb7urNmKcIGhEoLkFUExyGANHemxtrFAXDuk52Vp3wK/EzWYIuayvg1ugaqLUVRX/s5TIB6BI+XeQ6p6yz17nra/JsZ32jcx+1X/EOc78MNHpuj68NTBfCNbyczc4q9QpHbfuFu7FpjVF21dAc1+54vx4b5d2IrBeYUMBthDkbLTWnwtMvJNWECQBYUMXmUmlIqp1pqdQ8xO7qKZV6HK3xap/fDWQulhztFW+lcGPSzKutwq109IVkqzJxYwu6BVI9ABbq4njYC961AmiuJQVAL9f+0RiI+QAOWcipmtemaOHQPqYG6kHVdoE7kK5cpToqiOY9sMYiMAb+J6lI/ZikUOU9N0dYAhcIrUMDdWyKqIdtin7YhuijlnICad4xaqL/9yGPTsztIIYSvqLXSsLGTb5uq9oPuMm92ybua+/PFi4Q2q3mAaqbq9VYOBKucG2MfEAl9R+LP27wdVvVnsANro2R2I8bfN1W+UL5kUr8l/gv+VNwf+9VtanuGyPxX+K/xH+J/xIqqOB5W9WmOnbbxH+WPYn/eDcqP2+rWpH3jZH4/7ytalU9b6uEVIn/OPH/eVvVrnreVon/Ev8l/kuqkfj/vK1qVT1vq4RUif848f95W9WSfN5Wif/P26pW1fO2SvznKfEfJ/4/b6tMaV1Su+C+MU4GABOU1iW1CnQCI0rrkmQh81tbm2tLGQEW1pbSCLTWotJZu4DnysiQW80ZHmsuQ2LtZDhJreeMIc/mB7ysM9LSaC8w3ON3VWf4XtYZnqs6o/Cb58rIkFnNGSNeay5DYu1kuHiu5wyZRaER5LLOCHJVZ/he1hmeqzqj0JvUysjYL4D5LgAmeK65DO+1kyHSBlHJLAqNQJd1RnCrOsP/ss7wXNUZhd6kVkZGCsE9StQDmC+z5jKYOwH0Am29ogGT53rOkFgUGgEv64x5c6YggFWdIdNp0l0yDKCXC77JrYyMNgBDgtnCTG7NZXQCva61k+HmuZ4zJBaFhucrn8s6w/1T/K7qDJlOk+2ShTUvhd/P20pyZWRMFMwXApjj8W8j70SPtZMh/4V9U4AR70Wh4W9ZZ8hsWjCrOsO70+S7pKvmpQD82G1lV0aG+2odgDqZNZfhUmJ5XcCI96LQCHpZZwS0qjP8LesMgbYmx0sBONmVkTHFtR+aA8BrzWV4/Jt+L+S1njPaxvJcFBpBLuuM2TUCWtUZvpZ1hkAvHB+tEJzsysioF/02Cz3XXIY0mfWc4bkoNAJf1hkBreoM38s6Q7Q5UwrBSa+MDIajMfMANMuolyKznjM8F4VG4Ms6I5BVnSHZabIwvwCc9MrI4FYARZ4D9LLUmsuQ4rWeM2queC4KjaCXdUYwqzpDstNcZFZ1RuH3u6VXRgaPOq46WiGz5jLkeK3njC5gxGtRaPjk3rSgV3WGZKfJdUkrABR8k18ZGcwjrkFQsUY9gIlBaAXAAl6LQsMn96YFvaoz/C3rDKlVnVHo/byt5FdGBvMhAcC9H+oBMBIAz/Wc4bUoNHxyb1rAqzpDttMkpQAwu8D7vjHkV0YGcxFw3WOTzJrLkOa5njM8FoWGXzKbFsyqzvC3rDMkV3VGQTcfKyODmRsdUmaZNZchzXM9Z3gsCg2/ZDYtkFWd4XNZZ8iu6oxC7udtJb0yMkSDpzZmlllzGdI813OGx6LQ8Etm04JY1RmSneYDtwFoK+Q+dlsfKyODmbMadcwsseYyxGsnQ9QGifWc4bkoNAJe1hnBrOoMn8s6Q3ZVZxRuH2W0/MrI8FoGGfJrLiNLWdgGmfWcIbcoNMQt9bOsM4JZ1Rlynea7S7KskP942NW7KDRqO7ghADDpkxQAkAP3OYr9AsC79UmKowKAJEnHr9tKusy7XfHPHSzjjtNl3H662nPHNf/nLb62q4bTO4Ql18aQrjxbu5L6T+K/3YjsF0tXfq5d3f35C/eJKkn9J/Ff4r/Ef4n/kvpP4r/Ef4n/Ev8l/kv8l/gv8V/iv8R/if8S/yX+S/xnKgA=;" vertex="1" parent="1">
          <mxGeometry x="860" y="340" width="1706" height="1022" as="geometry" />
        </mxCell>
      </root>
    </mxGraphModel>
  </diagram>
</mxfile>
